<?xml version="1.0" encoding="utf-8"?>
<!-- Generator: Adobe Illustrator 25.0.0, SVG Export Plug-In . SVG Version: 6.00 Build 0)  -->
<svg version="1.1" id="Layer_1" xmlns="http://www.w3.org/2000/svg" xmlns:xlink="http://www.w3.org/1999/xlink" x="0px" y="0px"
	 viewBox="0 0 44 44" style="enable-background:new 0 0 44 44;" xml:space="preserve">
<g id="Group_174" transform="translate(120 -96)">
	<path id="Path_115" style="fill:#39F5AD;" d="M-94.45,139.71c-0.18,0.03-0.37,0.06-0.55,0.08
		C-94.82,139.77-94.64,139.74-94.45,139.71z"/>
	<path id="Path_116" style="fill:#39F5AD;" d="M-94.01,139.64l-0.26,0.05L-94.01,139.64z"/>
	<path id="Path_117" style="fill:#39F5AD;" d="M-95.5,139.86c-0.21,0.02-0.43,0.05-0.65,0.06C-95.93,139.9-95.71,139.88-95.5,139.86
		z"/>
	<path id="Path_118" style="fill:#39F5AD;" d="M-95.07,139.81l-0.31,0.04L-95.07,139.81z"/>
	<path id="Path_119" style="fill:#39F5AD;" d="M-93.41,139.52l-0.23,0.05L-93.41,139.52z"/>
	<path id="Path_120" style="fill:#39F5AD;" d="M-91.93,139.15l-0.19,0.05L-91.93,139.15z"/>
	<path id="Path_121" style="fill:#39F5AD;" d="M-92.38,139.27l-0.2,0.05L-92.38,139.27z"/>
	<path id="Path_122" style="fill:#39F5AD;" d="M-92.96,139.42l-0.22,0.05L-92.96,139.42z"/>
	<path id="Path_123" style="fill:#39F5AD;" d="M-96.15,139.92c-0.12,0.01-0.23,0.02-0.35,0.03
		C-96.38,139.94-96.27,139.93-96.15,139.92z"/>
	<path id="Path_124" style="fill:#39F5AD;" d="M-76,118c0-12.15-9.85-22-22-22s-22,9.85-22,22c0,12.15,9.85,22,22,22
		c0.13,0,0.26,0,0.39-0.01v-17.13h-4.73v-5.51h4.73v-4.05c0-4.7,2.87-7.26,7.06-7.26c1.42,0,2.83,0.07,4.24,0.22v4.91h-2.89
		c-2.28,0-2.72,1.08-2.72,2.67v3.51h5.46l-0.71,5.51h-4.74v16.28C-82.5,136.44-76,127.81-76,118z"/>
	<path id="Path_125" style="fill:#39F5AD;" d="M-96.55,139.95c-0.23,0.01-0.46,0.03-0.69,0.03
		C-97.01,139.98-96.78,139.97-96.55,139.95z"/>
	<path id="Path_126" style="fill:#39F5AD;" d="M-97.25,139.99c-0.12,0-0.24,0.01-0.36,0.01C-97.49,139.99-97.37,139.99-97.25,139.99
		z"/>
</g>
</svg>
