<?xml version="1.0" encoding="utf-8"?>
<!-- Generator: Adobe Illustrator 25.0.0, SVG Export Plug-In . SVG Version: 6.00 Build 0)  -->
<svg version="1.1" id="Layer_1" xmlns="http://www.w3.org/2000/svg" xmlns:xlink="http://www.w3.org/1999/xlink" x="0px" y="0px"
	 viewBox="0 0 44 44" style="enable-background:new 0 0 44 44;" xml:space="preserve">
<g id="Group_175" transform="translate(60 -96)">
	<path id="Path_127" style="fill:#39F5AD;" d="M-33.79,118c0,2.33-1.89,4.21-4.21,4.21s-4.21-1.89-4.21-4.21s1.89-4.21,4.21-4.21
		l0,0C-35.67,113.79-33.79,115.67-33.79,118z"/>
	<path id="Path_128" style="fill:#39F5AD;" d="M-28.15,110.55c-0.42-1.1-1.3-1.98-2.4-2.4c-0.75-0.28-1.54-0.43-2.35-0.43
		c-1.33-0.06-1.73-0.07-5.1-0.07s-3.77,0.01-5.1,0.07c-0.8,0.01-1.59,0.16-2.35,0.43c-1.1,0.43-1.97,1.3-2.4,2.4
		c-0.28,0.75-0.43,1.54-0.43,2.35c-0.06,1.33-0.07,1.73-0.07,5.1s0.01,3.77,0.07,5.1c0.01,0.8,0.16,1.59,0.43,2.35
		c0.42,1.1,1.3,1.98,2.4,2.4c0.75,0.28,1.54,0.43,2.35,0.43c1.33,0.06,1.73,0.07,5.1,0.07s3.77-0.01,5.1-0.07
		c0.8-0.01,1.59-0.16,2.35-0.43c1.1-0.43,1.97-1.3,2.4-2.4c0.28-0.75,0.43-1.54,0.43-2.35c0.06-1.33,0.07-1.73,0.07-5.1
		s-0.01-3.77-0.07-5.1C-27.72,112.09-27.87,111.3-28.15,110.55L-28.15,110.55z M-38,124.49c-3.58,0-6.49-2.9-6.49-6.49
		s2.9-6.49,6.49-6.49s6.49,2.9,6.49,6.49l0,0C-31.51,121.58-34.42,124.49-38,124.49z M-31.26,112.77c-0.84,0-1.52-0.68-1.52-1.52
		c0-0.84,0.68-1.52,1.52-1.52c0.84,0,1.52,0.68,1.52,1.52l0,0C-29.74,112.09-30.42,112.77-31.26,112.77z"/>
	<path id="Path_129" style="fill:#39F5AD;" d="M-38,96c-12.15,0-22,9.85-22,22c0,12.15,9.85,22,22,22s22-9.85,22-22
		C-16,105.85-25.85,96-38,96z M-25.44,123.21c-0.02,1.05-0.22,2.09-0.59,3.07c-0.66,1.7-2,3.04-3.7,3.69
		c-0.98,0.37-2.02,0.57-3.07,0.59c-1.35,0.06-1.78,0.08-5.21,0.08s-3.86-0.01-5.21-0.08c-1.05-0.02-2.08-0.22-3.07-0.59
		c-1.7-0.66-3.04-2-3.7-3.69c-0.37-0.98-0.57-2.02-0.59-3.07c-0.06-1.35-0.08-1.78-0.08-5.21s0.01-3.86,0.08-5.21
		c0.02-1.05,0.22-2.09,0.59-3.07c0.66-1.7,2-3.04,3.7-3.69c0.98-0.37,2.02-0.57,3.07-0.59c1.35-0.06,1.78-0.08,5.21-0.08
		s3.86,0.01,5.21,0.08c1.05,0.02,2.09,0.22,3.07,0.59c1.7,0.66,3.04,2,3.69,3.7c0.37,0.98,0.57,2.02,0.59,3.07
		c0.06,1.35,0.08,1.78,0.08,5.21S-25.38,121.86-25.44,123.21L-25.44,123.21z"/>
</g>
</svg>
