<svg xmlns="http://www.w3.org/2000/svg" width="44" height="44" viewBox="0 0 44 44"><defs><style>.a{fill:#39f5ad;}</style></defs><path class="a" d="M455.407,550.944q-.275.045-.552.083.277-.038.552-.083Zm0,0" transform="translate(-429.86 -507.23)"/><path class="a" d="M463.6,550.069l-.263.046.263-.046Zm0,0" transform="translate(-437.615 -506.431)"/><path class="a" d="M442.256,552.616q-.322.036-.647.064.325-.027.647-.064Zm0,0" transform="translate(-417.752 -508.759)"/><path class="a" d="M450.755,552.014l-.31.039.31-.039Zm0,0" transform="translate(-425.829 -508.208)"/><path class="a" d="M470.9,548.686l-.232.049.232-.049Zm0,0" transform="translate(-444.31 -505.166)"/><path class="a" d="M488.671,544.389l-.187.052.187-.052Zm0,0" transform="translate(-460.599 -501.239)"/><path class="a" d="M483.263,545.819l-.2.053.2-.053Zm0,0" transform="translate(-455.64 -502.546)"/><path class="a" d="M476.283,547.53l-.217.049.217-.049Zm0,0" transform="translate(-449.248 -504.11)"/><path class="a" d="M437.828,553.366q-.174.015-.348.026.174-.012.348-.026Zm0,0" transform="translate(-413.978 -509.444)"/><path class="a" d="M208,64.276a22,22,0,1,0-22,22c.129,0,.258,0,.387-.005V69.145H181.66V63.637h4.727V59.583c0-4.7,2.87-7.26,7.063-7.26a38.89,38.89,0,0,1,4.237.217v4.913H194.8c-2.281,0-2.723,1.084-2.723,2.675v3.508h5.455l-.711,5.508h-4.744V85.426A22.012,22.012,0,0,0,208,64.276Zm0,0" transform="translate(-164 -42.276)"/><path class="a" d="M429.58,553.706q-.343.022-.689.034.346-.012.689-.034Zm0,0" transform="translate(-406.127 -509.755)"/><path class="a" d="M424.869,554.112q-.182.006-.365.009.183,0,.365-.009Zm0,0" transform="translate(-402.117 -510.126)"/></svg>