<svg xmlns="http://www.w3.org/2000/svg" xmlns:xlink="http://www.w3.org/1999/xlink" width="44" height="42.914" viewBox="0 0 44 42.914"><defs><style>.a,.c{fill:#39f5ad;}.b{clip-path:url(#a);}.c{fill-rule:evenodd;}</style><clipPath id="a"><rect class="a" width="44" height="42.914"/></clipPath></defs><g transform="translate(0 0)"><g class="b" transform="translate(0 0)"><path class="c" d="M22,0a22,22,0,0,0-6.953,42.876c1.1.2,1.5-.478,1.5-1.062,0-.521-.019-1.906-.03-3.741-6.119,1.329-7.411-2.95-7.411-2.95a5.82,5.82,0,0,0-2.443-3.217c-2-1.365.151-1.338.151-1.338a4.623,4.623,0,0,1,3.37,2.268c1.962,3.362,5.148,2.39,6.4,1.829a4.7,4.7,0,0,1,1.4-2.942C13.1,31.168,7.964,29.28,7.964,20.85a8.505,8.505,0,0,1,2.265-5.9,7.908,7.908,0,0,1,.215-5.822s1.848-.592,6.051,2.255a20.826,20.826,0,0,1,11.015,0c4.2-2.847,6.044-2.255,6.044-2.255a7.9,7.9,0,0,1,.219,5.822,8.491,8.491,0,0,1,2.262,5.9c0,8.452-5.144,10.312-10.045,10.856a5.251,5.251,0,0,1,1.494,4.075c0,2.94-.027,5.313-.027,6.034,0,.589.4,1.274,1.513,1.059A22,22,0,0,0,22,0" transform="translate(0 0.001)"/></g></g></svg>