<svg xmlns="http://www.w3.org/2000/svg" width="44" height="44" viewBox="0 0 44 44"><defs><style>.a{fill:#39f5ad;}</style></defs><path class="a" d="M379.422,253.487a4.211,4.211,0,1,1-4.211-4.211,4.211,4.211,0,0,1,4.211,4.211Zm0,0" transform="translate(-353.211 -231.487)"/><path class="a" d="M319.689,180.67a4.183,4.183,0,0,0-2.4-2.4,6.99,6.99,0,0,0-2.345-.435c-1.332-.061-1.732-.074-5.1-.074s-3.773.013-5.1.074a6.994,6.994,0,0,0-2.345.435,4.185,4.185,0,0,0-2.4,2.4,6.994,6.994,0,0,0-.435,2.346c-.061,1.332-.074,1.731-.074,5.1s.013,3.773.074,5.1a6.991,6.991,0,0,0,.435,2.346,4.183,4.183,0,0,0,2.4,2.4,6.981,6.981,0,0,0,2.346.435c1.332.061,1.731.074,5.1.074s3.773-.013,5.1-.074a6.982,6.982,0,0,0,2.346-.435,4.184,4.184,0,0,0,2.4-2.4,7,7,0,0,0,.435-2.346c.061-1.332.074-1.732.074-5.1s-.013-3.773-.074-5.1a6.982,6.982,0,0,0-.435-2.346Zm-9.848,13.937a6.487,6.487,0,1,1,6.487-6.487,6.487,6.487,0,0,1-6.487,6.487Zm6.743-11.714a1.516,1.516,0,1,1,1.516-1.516,1.516,1.516,0,0,1-1.516,1.516Zm0,0" transform="translate(-287.841 -166.121)"/><path class="a" d="M186,42.276a22,22,0,1,0,22,22,22,22,0,0,0-22-22Zm12.557,27.208a9.267,9.267,0,0,1-.587,3.067,6.459,6.459,0,0,1-3.695,3.695,9.274,9.274,0,0,1-3.066.587c-1.347.061-1.777.076-5.208.076s-3.861-.015-5.209-.076a9.274,9.274,0,0,1-3.066-.587,6.459,6.459,0,0,1-3.695-3.695,9.266,9.266,0,0,1-.587-3.066c-.062-1.347-.077-1.778-.077-5.209s.014-3.861.076-5.208A9.269,9.269,0,0,1,174.03,56a6.464,6.464,0,0,1,3.695-3.695,9.277,9.277,0,0,1,3.067-.587c1.347-.061,1.777-.076,5.208-.076s3.861.015,5.208.077a9.278,9.278,0,0,1,3.067.586A6.461,6.461,0,0,1,197.969,56a9.266,9.266,0,0,1,.587,3.067c.061,1.347.076,1.777.076,5.208s-.014,3.861-.076,5.208Zm0,0" transform="translate(-164 -42.276)"/></svg>