<svg width="144" height="144" viewBox="0 0 144 144" fill="none" xmlns="http://www.w3.org/2000/svg">
<path d="M98.5221 144C91.2831 144 84.4942 143.265 81.8496 142.238C78.4414 140.915 68.0693 136.887 67.8586 123.93C67.8525 123.526 67.9301 123.125 68.0872 122.75C68.2442 122.375 68.4775 122.032 68.7737 121.743C69.07 121.453 69.4235 121.222 69.8139 121.062C70.2043 120.902 70.6241 120.817 71.0492 120.811H71.1012C71.9514 120.811 72.7677 121.128 73.3738 121.694C73.98 122.26 74.3274 123.03 74.3411 123.838C74.4437 130.075 77.4235 133.878 84.3068 136.551C89.6673 138.63 112.703 138.213 115.944 135.381C118.316 133.302 119.489 121.775 120.049 116.236C120.247 113.193 120.678 110.168 121.341 107.185C122.618 102.941 127.532 101.597 131.865 100.418C133.655 99.9303 136.949 99.0311 137.501 98.2554C137.096 97.0921 136.569 95.9703 135.928 94.9069C133.073 89.5795 127.759 79.6704 125.323 57.9448C121.492 23.8505 87.9147 10.194 87.5767 10.0667C79.0777 6.84292 49.2255 -1.668 21.9605 24.1909C13.3775 32.1851 7.99002 42.766 6.72181 54.1195C6.04151 59.7223 6.83076 65.398 9.01925 70.6411C11.2077 75.8841 14.7276 80.5318 19.2652 84.1702C23.5718 87.6958 28.7394 90.1411 34.2965 91.283C39.8537 92.4249 45.6234 92.227 51.0794 90.7073C58.2499 88.7583 63.5297 85.0278 65.582 80.4812C66.1926 79.1974 66.4836 77.7971 66.4323 76.3892C66.3811 74.9813 65.989 73.6035 65.2865 72.3627C65.0888 72.0048 64.9674 71.6134 64.929 71.2109C64.8906 70.8084 64.9361 70.4027 65.0628 70.0169C65.1895 69.6311 65.3951 69.2728 65.6676 68.9624C65.9401 68.652 66.2744 68.3957 66.6512 68.208C67.0281 68.0203 67.4402 67.9049 67.864 67.8685C68.2878 67.832 68.715 67.8752 69.1212 67.9956C69.5275 68.1159 69.9048 68.3111 70.2316 68.5699C70.5584 68.8287 70.8283 69.1462 71.026 69.5041C72.1743 71.5535 72.8177 73.8238 72.9075 76.1438C72.9974 78.4637 72.5313 80.7728 71.5445 82.8968C68.7261 89.1507 61.918 94.152 52.8662 96.6169C46.386 98.4227 39.5327 98.6585 32.9319 97.3028C26.3311 95.9471 20.1928 93.0431 15.0772 88.8557C9.72494 84.5657 5.57294 79.0852 2.99103 72.9021C0.40912 66.7191 -0.522523 60.0256 0.279086 53.4178C1.70247 40.6773 7.74881 28.804 17.3813 19.8341C30.6703 7.23013 46.1252 0.568226 63.3177 0.0354817C72.4232 -0.252504 81.4957 1.21501 89.9875 4.34941C100.402 8.30082 128.209 25.5124 131.771 57.286C134.082 77.8851 139.045 87.1392 141.71 92.1094C143.479 95.4098 144.877 98.0176 143.339 100.933C141.651 104.136 137.593 105.245 133.66 106.317C131.636 106.869 127.868 107.896 127.577 108.862C127.05 111.49 126.692 114.146 126.505 116.814C125.385 127.808 124.222 136.49 120.34 139.887C116.901 142.901 107.376 144 98.5221 144Z" fill="#07373B"/>
<path d="M69.8274 68.1657C70.0778 68.2762 70.4882 68.4399 70.8371 68.5698C71.186 68.6998 71.5732 68.8388 71.9481 68.9597C72.6978 69.2117 73.4613 69.4417 74.2275 69.647C75.7529 70.0586 77.3075 70.3656 78.8793 70.5657C81.8495 71.0144 84.8889 70.8032 87.7587 69.9485C90.4461 69.0629 92.7235 67.3137 94.1973 65.0031C95.7635 62.463 96.7786 59.6509 97.1827 56.7325C97.2632 56.25 97.4792 55.7971 97.8079 55.4214L98.1226 55.0628L98.4496 54.6639C98.6671 54.3923 98.8806 54.1117 99.0858 53.8245C99.4963 53.2515 99.8876 52.6551 100.246 52.0535C100.957 50.8554 101.54 49.5931 101.988 48.2853C102.417 47.0229 102.669 45.7121 102.736 44.3871C102.766 43.7418 102.742 43.0952 102.662 42.4537C102.623 42.134 102.573 41.817 102.502 41.5051C102.431 41.1933 102.343 40.8216 102.26 40.4942C101.676 37.9083 100.238 35.567 98.1555 33.8115C95.8865 32.0852 93.2299 30.8777 90.3911 30.2824L90.3323 30.2681C90.0318 30.1954 89.7511 30.063 89.5086 29.8795C89.2662 29.696 89.0675 29.4658 88.9258 29.2039C88.8546 29.074 88.7123 28.8362 88.5919 28.6491C88.4715 28.462 88.332 28.2489 88.1938 28.0501C87.9201 27.6498 87.6219 27.26 87.3195 26.8806C86.7078 26.1141 86.0437 25.3867 85.3316 24.7029C83.945 23.3462 82.3304 22.218 80.5539 21.3648C78.8138 20.5356 76.9108 20.0599 74.9663 19.9679C72.98 19.9043 70.9977 20.1766 69.1119 20.7722L69.0694 20.7852C68.7907 20.8689 68.4955 20.8909 68.2064 20.8494C67.9173 20.808 67.642 20.7042 67.4017 20.5462C67.0911 20.3396 66.6546 20.0823 66.2606 19.864C65.8665 19.6457 65.4397 19.4248 65.0156 19.2234C64.1723 18.8185 63.3042 18.4618 62.416 18.1553C60.698 17.5376 58.8835 17.1968 57.0473 17.147C55.2995 17.1039 53.5705 17.4973 52.033 18.2878C50.4853 19.137 49.1675 20.3174 48.1843 21.7351L48.172 21.752C48.0221 21.955 47.8234 22.1211 47.5923 22.2366C47.3613 22.3521 47.1046 22.4136 46.8435 22.416C45.7704 22.4269 44.6987 22.4955 43.6337 22.6213C42.5517 22.745 41.4772 22.9219 40.4144 23.1514C38.3175 23.5802 36.2981 24.2986 34.4205 25.2837C32.609 26.2196 31.0805 27.581 29.9807 29.2377C28.9372 30.9293 28.3928 32.8567 28.4046 34.8172C28.4016 34.9959 28.3583 35.1718 28.2776 35.3332C28.1969 35.4946 28.0806 35.6377 27.9367 35.7528C25.9238 37.3582 24.1311 39.1973 22.6008 41.227C21.0509 43.2005 19.9537 45.4607 19.3801 47.8617C18.8599 50.2171 19.234 52.6714 20.4364 54.79C21.7443 56.9367 23.543 58.7773 25.6997 60.1759C25.827 60.2639 25.9274 60.3825 25.9906 60.5195C26.0538 60.6565 26.0776 60.8069 26.0595 60.9555C25.9423 62.028 25.9492 63.1095 26.0801 64.1805C26.2005 65.2612 26.4568 66.3243 26.8435 67.3471C27.5821 69.3946 29.0003 71.1592 30.8851 72.3757C31.8375 72.9812 32.8784 73.4505 33.9744 73.7686C35.0862 74.1052 36.233 74.3265 37.3949 74.4287C39.743 74.6681 42.1154 74.5806 44.4369 74.1688C46.7521 73.7837 48.9086 72.7939 50.6648 71.3102C52.3671 69.748 53.4961 67.7079 53.8855 65.4903C54.2887 63.2496 54.1955 60.9537 53.6118 58.7492C53.3337 57.64 52.9372 56.5607 52.4284 55.528C51.9349 54.4832 51.2559 53.5269 50.4212 52.7006C51.2886 53.5043 52.0041 54.4435 52.5365 55.4773C53.087 56.5037 53.5258 57.5809 53.8458 58.692C54.5188 60.9252 54.6936 63.2672 54.3589 65.5683C54.0252 67.9182 52.9064 70.1043 51.1669 71.8053C49.3531 73.4475 47.0939 74.5781 44.6421 75.0706C42.2281 75.5885 39.7453 75.755 37.2786 75.5644C36.0313 75.4828 34.7969 75.2737 33.5968 74.9407C32.3722 74.6155 31.2046 74.1213 30.1312 73.4737C29.0417 72.8109 28.075 71.9815 27.2704 71.0192C26.4784 70.0603 25.842 68.9943 25.3823 67.8565C24.9233 66.732 24.6078 65.5595 24.4424 64.3638C24.2634 63.1621 24.2272 61.9452 24.3343 60.7359L24.6941 61.5155C22.2696 60.0167 20.2321 58.0181 18.733 55.6683C17.994 54.4408 17.4882 53.0993 17.2389 51.7052C16.9999 50.3094 17.0096 48.8854 17.2677 47.4926C17.8307 44.7822 18.9877 42.2145 20.6635 39.9563C21.461 38.8372 22.3344 37.7686 23.2781 36.7572C24.2234 35.733 25.2394 34.7698 26.3195 33.8739L25.8529 34.8081C25.7849 32.4026 26.3993 30.024 27.6316 27.9214C28.9233 25.8499 30.7517 24.1268 32.9428 22.9162C35.0442 21.7411 37.3159 20.8655 39.6852 20.3175C40.8466 20.038 42.0225 19.8159 43.2082 19.6522C44.4098 19.4806 45.6208 19.376 46.8353 19.339L45.4945 20.0199C46.7196 18.1724 48.3818 16.6218 50.3488 15.4916C52.3805 14.3793 54.6831 13.7907 57.0282 13.7842C59.2714 13.7843 61.4987 14.1418 63.6173 14.8419C64.653 15.1737 65.6668 15.5642 66.6533 16.0113C67.1458 16.2331 67.6315 16.4687 68.1104 16.7182C68.6015 16.9781 69.0394 17.2145 69.573 17.5472L67.8614 17.3211C70.18 16.5304 72.6288 16.1396 75.0922 16.1672C77.6017 16.2261 80.0711 16.7796 82.3435 17.7928C84.5653 18.7908 86.5969 20.1328 88.3552 21.7637C89.2249 22.5581 90.0389 23.4058 90.792 24.3014C91.1641 24.7509 91.5294 25.2109 91.8728 25.6813C92.0452 25.9191 92.2148 26.1595 92.3818 26.4063C92.5487 26.6532 92.6965 26.8793 92.8907 27.2133L91.4254 26.1348C94.9814 26.8111 98.3241 28.2606 101.191 30.3694C102.662 31.5112 103.916 32.8832 104.901 34.4261C105.846 35.9353 106.57 37.5597 107.054 39.2546C107.173 39.673 107.287 40.0342 107.385 40.4929C107.484 40.9516 107.578 41.3752 107.645 41.8222C107.779 42.7107 107.838 43.608 107.82 44.5054C107.781 46.2659 107.495 48.0136 106.972 49.7029C106.46 51.3467 105.775 52.9377 104.929 54.4521C104.512 55.2031 104.06 55.9343 103.573 56.6455C103.331 57.0028 103.078 57.3536 102.813 57.7044L102.402 58.2242C102.253 58.4074 102.129 58.5555 101.927 58.7868L102.573 57.4524C102.333 59.2276 101.941 60.9811 101.399 62.6954C100.843 64.4824 100.06 66.1981 99.0653 67.8045C98.024 69.484 96.7003 70.9904 95.1468 72.264C93.5609 73.5399 91.7561 74.5477 89.811 75.2434C86.0716 76.4906 82.0771 76.8911 78.1459 76.4129C76.2688 76.2191 74.4087 75.8973 72.5802 75.45C71.6681 75.23 70.7683 74.9818 69.8808 74.7055C69.4348 74.5678 68.9887 74.4214 68.5427 74.2663C68.0802 74.1026 67.6835 73.9623 67.1417 73.7401C66.7514 73.5797 66.3981 73.3478 66.1021 73.0578C65.8061 72.7677 65.5732 72.4251 65.4166 72.0496C65.26 71.674 65.1829 71.2729 65.1895 70.869C65.1962 70.4651 65.2865 70.0665 65.4554 69.6958C65.6243 69.325 65.8684 68.9896 66.1739 68.7085C66.4793 68.4273 66.84 68.2061 67.2354 68.0574C67.6308 67.9087 68.0533 67.8354 68.4785 67.8417C68.9038 67.8481 69.3235 67.9339 69.7139 68.0943L69.785 68.1242L69.8274 68.1657Z" fill="#07373B"/>
<path d="M38.2746 29.6626C38.2092 29.663 38.1452 29.6446 38.091 29.6097C38.0369 29.5748 37.9952 29.5251 37.9715 29.4672C37.9477 29.4093 37.9431 29.3459 37.9581 29.2854C37.9732 29.2249 38.0072 29.1702 38.0557 29.1285C39.8037 27.8326 41.8953 27.0215 44.0988 26.7848C46.3022 26.5481 48.5317 26.8952 50.5403 27.7876C50.6161 27.8215 50.6751 27.882 50.7049 27.9564C50.7347 28.0307 50.7331 28.1131 50.7004 28.1864C50.6677 28.2596 50.6064 28.318 50.5294 28.3492C50.4523 28.3805 50.3655 28.3823 50.2872 28.3541C48.3925 27.507 46.2883 27.1735 44.2067 27.3904C42.125 27.6073 40.147 28.3662 38.4908 29.5833C38.4316 29.6342 38.3545 29.6625 38.2746 29.6626Z" fill="#07373B"/>
<path d="M64.4013 61.1283C64.3447 61.1284 64.2891 61.1145 64.2398 61.088C58.1966 57.8045 54.1619 59.0662 54.1153 59.0792C54.0745 59.0954 54.0306 59.1034 53.9864 59.1029C53.9421 59.1024 53.8985 59.0932 53.8581 59.076C53.8177 59.0589 53.7814 59.034 53.7515 59.003C53.7216 58.972 53.6987 58.9356 53.6842 58.8959C53.6697 58.8562 53.6639 58.814 53.6672 58.7721C53.6705 58.7302 53.6828 58.6894 53.7033 58.6522C53.7238 58.6149 53.7521 58.5821 53.7865 58.5556C53.8209 58.5292 53.8607 58.5097 53.9033 58.4984C54.0784 58.4412 58.2609 57.134 64.5559 60.5553C64.6174 60.5892 64.6654 60.6413 64.6927 60.7037C64.7199 60.7661 64.7248 60.8352 64.7066 60.9005C64.6884 60.9658 64.6482 61.0235 64.592 61.065C64.5358 61.1064 64.4669 61.1291 64.3958 61.1296L64.4013 61.1283Z" fill="#07373B"/>
<path d="M89.785 64.6678C89.7587 64.6678 89.7325 64.6648 89.707 64.6587L81.4624 62.7214C81.4186 62.7139 81.377 62.6981 81.34 62.6748C81.303 62.6514 81.2715 62.6211 81.2473 62.5858C81.2232 62.5504 81.2069 62.5106 81.1996 62.4691C81.1922 62.4275 81.194 62.3849 81.2047 62.344C81.2154 62.303 81.2348 62.2646 81.2618 62.2311C81.2887 62.1976 81.3227 62.1698 81.3615 62.1492C81.4003 62.1287 81.4431 62.1159 81.4872 62.1118C81.5314 62.1076 81.5761 62.1121 81.6184 62.1249L89.863 64.0623C89.9386 64.0814 90.0044 64.1258 90.0482 64.1874C90.092 64.249 90.111 64.3235 90.1015 64.3973C90.092 64.4711 90.0547 64.5391 89.9965 64.5888C89.9383 64.6385 89.8632 64.6666 89.785 64.6678Z" fill="#07373B"/>
<path d="M91.5677 70.094C91.4987 70.094 91.4315 70.073 91.3759 70.0343C91.3203 69.9955 91.2792 69.9408 91.2585 69.8783L87.0883 57.1769C87.0673 57.1003 87.078 57.0189 87.1185 56.9497C87.1589 56.8804 87.2259 56.8286 87.3055 56.8051C87.3851 56.7815 87.4712 56.7879 87.5459 56.823C87.6206 56.8582 87.6782 56.9193 87.7068 56.9937L91.8783 69.6951C91.8918 69.734 91.897 69.7751 91.8936 69.8159C91.8901 69.8567 91.8781 69.8964 91.8582 69.9328C91.8383 69.9691 91.811 70.0013 91.7777 70.0274C91.7445 70.0535 91.7062 70.0731 91.6649 70.0849C91.6332 70.0927 91.6004 70.0958 91.5677 70.094Z" fill="#07373B"/>
<path d="M87.3948 58.9324C88.4708 58.9324 89.3431 58.1051 89.3431 57.0846C89.3431 56.0642 88.4708 55.2369 87.3948 55.2369C86.3188 55.2369 85.4465 56.0642 85.4465 57.0846C85.4465 58.1051 86.3188 58.9324 87.3948 58.9324Z" fill="#07373B"/>
<path d="M37.2266 75.3045H37.191C37.1486 75.3003 37.1076 75.2882 37.0702 75.2688C37.0328 75.2495 36.9997 75.2233 36.973 75.1917C36.9463 75.1602 36.9265 75.124 36.9146 75.0851C36.9027 75.0463 36.899 75.0056 36.9037 74.9654L39.0011 57.034C39.0124 56.9543 39.0561 56.882 39.1228 56.8325C39.1895 56.783 39.2739 56.7602 39.358 56.769C39.4422 56.7779 39.5193 56.8176 39.573 56.8797C39.6268 56.9418 39.6528 57.0214 39.6455 57.1015L37.5481 75.0329C37.5388 75.1077 37.5009 75.1766 37.4416 75.2267C37.3824 75.2767 37.3059 75.3044 37.2266 75.3045Z" fill="#07373B"/>
<path d="M39.3226 58.9181C40.3986 58.9181 41.2709 58.0908 41.2709 57.0704C41.2709 56.0499 40.3986 55.2226 39.3226 55.2226C38.2466 55.2226 37.3744 56.0499 37.3744 57.0704C37.3744 58.0908 38.2466 58.9181 39.3226 58.9181Z" fill="#07373B"/>
<path d="M50.4144 29.9186C51.4904 29.9186 52.3627 29.0913 52.3627 28.0708C52.3627 27.0504 51.4904 26.2231 50.4144 26.2231C49.3384 26.2231 48.4661 27.0504 48.4661 28.0708C48.4661 29.0913 49.3384 29.9186 50.4144 29.9186Z" fill="#07373B"/>
<path d="M65.3521 62.9072C66.4281 62.9072 67.3004 62.0799 67.3004 61.0594C67.3004 60.039 66.4281 59.2117 65.3521 59.2117C64.2761 59.2117 63.4039 60.039 63.4039 61.0594C63.4039 62.0799 64.2761 62.9072 65.3521 62.9072Z" fill="#07373B"/>
<path d="M45.7038 45.3954C45.6484 45.3946 45.5942 45.3803 45.5463 45.3539C45.4984 45.3275 45.4584 45.2899 45.4302 45.2447C41.6581 39.2234 36.8107 37.0314 33.4107 36.253C31.2635 35.7386 29.0273 35.6532 26.8435 36.0022C26.7625 36.013 26.6801 35.9943 26.613 35.9498C26.5459 35.9053 26.499 35.8384 26.4817 35.7624C26.4643 35.6864 26.4779 35.6071 26.5196 35.5402C26.5614 35.4734 26.6282 35.424 26.7067 35.4019C26.8244 35.376 38.5263 33.0163 45.9897 44.9303C46.0188 44.9767 46.0345 45.0295 46.0352 45.0834C46.036 45.1374 46.0217 45.1906 45.994 45.2377C45.9663 45.2848 45.9261 45.3242 45.8773 45.3519C45.8285 45.3796 45.7729 45.3946 45.7161 45.3954H45.7038Z" fill="#07373B"/>
<path d="M45.7052 46.9352C46.7812 46.9352 47.6534 46.108 47.6534 45.0875C47.6534 44.067 46.7812 43.2398 45.7052 43.2398C44.6292 43.2398 43.7569 44.067 43.7569 45.0875C43.7569 46.108 44.6292 46.9352 45.7052 46.9352Z" fill="#07373B"/>
<path d="M58.7603 59.0545C58.7064 59.0552 58.6531 59.0431 58.6053 59.0192C58.5575 58.9954 58.5167 58.9606 58.4867 58.9181C57.6309 57.5493 57.0891 56.0244 56.8969 54.443C56.4504 50.5593 57.5954 46.6615 60.0943 43.5581C60.1446 43.4936 60.2194 43.4502 60.3029 43.4374C60.3864 43.4245 60.4718 43.443 60.5411 43.4891C60.6103 43.5352 60.6578 43.6052 60.6735 43.6841C60.6892 43.763 60.6719 43.8446 60.6251 43.9116C58.2276 46.8806 57.1218 50.6104 57.5358 54.3313C57.7176 55.8294 58.225 57.2754 59.0257 58.5776C59.0588 58.6242 59.0778 58.6784 59.0806 58.7345C59.0834 58.7906 59.07 58.8463 59.0418 58.8956C59.0136 58.945 58.9717 58.986 58.9206 59.0142C58.8695 59.0425 58.8112 59.0568 58.7521 59.0558L58.7603 59.0545Z" fill="#07373B"/>
<path d="M60.3651 45.5813C61.4412 45.5813 62.3134 44.754 62.3134 43.7335C62.3134 42.7131 61.4412 41.8858 60.3651 41.8858C59.2891 41.8858 58.4169 42.7131 58.4169 43.7335C58.4169 44.754 59.2891 45.5813 60.3651 45.5813Z" fill="#07373B"/>
<path d="M99.7685 40.8463C96.4946 40.8273 93.2788 40.0227 90.4198 38.5074C90.3805 38.4891 90.3455 38.4634 90.3169 38.4318C90.2884 38.4002 90.2668 38.3635 90.2536 38.3238C90.2404 38.2841 90.2358 38.2423 90.2401 38.2008C90.2444 38.1594 90.2575 38.1192 90.2786 38.0828C90.2997 38.0463 90.3284 38.0143 90.3629 37.9886C90.3974 37.9629 90.4371 37.9442 90.4794 37.9335C90.5218 37.9228 90.5659 37.9203 90.6093 37.9263C90.6527 37.9323 90.6944 37.9465 90.7318 37.9682C94.2661 39.8742 98.3746 40.5908 102.391 40.0017C102.434 39.99 102.478 39.9866 102.522 39.9917C102.566 39.9968 102.608 40.0104 102.646 40.0315C102.684 40.0527 102.717 40.081 102.743 40.1147C102.77 40.1484 102.788 40.1869 102.798 40.2277C102.808 40.2685 102.809 40.3108 102.801 40.3521C102.794 40.3933 102.777 40.4326 102.753 40.4675C102.728 40.5024 102.697 40.5322 102.66 40.5551C102.623 40.578 102.581 40.5936 102.538 40.6007C101.626 40.7744 100.698 40.8567 99.7685 40.8463Z" fill="#07373B"/>
<path d="M89.7809 39.4768C90.8569 39.4768 91.7292 38.6495 91.7292 37.6291C91.7292 36.6086 90.8569 35.7814 89.7809 35.7814C88.7049 35.7814 87.8326 36.6086 87.8326 37.6291C87.8326 38.6495 88.7049 39.4768 89.7809 39.4768Z" fill="#07373B"/>
<path d="M79.0284 33.5347C79.0098 33.5364 78.991 33.5364 78.9723 33.5347C78.9304 33.5274 78.8903 33.5123 78.8546 33.4902C78.8188 33.4681 78.7881 33.4394 78.764 33.406C78.74 33.3725 78.7231 33.3349 78.7145 33.2952C78.7059 33.2555 78.7056 33.2146 78.7138 33.1748C80.1449 25.4539 73.8649 23.0241 73.5968 22.9253C73.555 22.9122 73.5165 22.8911 73.4836 22.8634C73.4506 22.8356 73.424 22.8018 73.4052 22.764C73.3865 22.7262 73.3761 22.6852 73.3746 22.6434C73.3731 22.6016 73.3806 22.56 73.3966 22.5211C73.4126 22.4821 73.4367 22.4467 73.4676 22.4169C73.4985 22.3871 73.5354 22.3636 73.5762 22.3478C73.6169 22.332 73.6606 22.3243 73.7046 22.3251C73.7486 22.3258 73.792 22.3351 73.8321 22.3523C73.9019 22.3783 80.8782 25.0537 79.3513 33.2814C79.338 33.3531 79.2981 33.4181 79.239 33.4645C79.1798 33.5109 79.1052 33.5358 79.0284 33.5347Z" fill="#07373B"/>
<path d="M79.131 36.0438C80.207 36.0438 81.0793 35.2166 81.0793 34.1961C81.0793 33.1756 80.207 32.3484 79.131 32.3484C78.055 32.3484 77.1827 33.1756 77.1827 34.1961C77.1827 35.2166 78.055 36.0438 79.131 36.0438Z" fill="#07373B"/>
<path d="M81.5404 64.2715C82.6164 64.2715 83.4886 63.4443 83.4886 62.4238C83.4886 61.4033 82.6164 60.5761 81.5404 60.5761C80.4644 60.5761 79.5921 61.4033 79.5921 62.4238C79.5921 63.4443 80.4644 64.2715 81.5404 64.2715Z" fill="#07373B"/>
<path d="M37.9859 68.8154C37.9197 68.8154 37.855 68.7961 37.8007 68.7601C37.7464 68.7241 37.7049 68.6732 37.682 68.6142C37.659 68.5551 37.6557 68.4909 37.6723 68.43C37.689 68.3691 37.7249 68.3145 37.7752 68.2736L44.9718 62.4342C45.0036 62.4048 45.0413 62.3818 45.0827 62.3668C45.1242 62.3518 45.1684 62.345 45.2127 62.3469C45.257 62.3487 45.3004 62.3592 45.3403 62.3776C45.3801 62.396 45.4156 62.422 45.4445 62.454C45.4733 62.486 45.495 62.5232 45.5081 62.5634C45.5212 62.6037 45.5255 62.646 45.5207 62.6879C45.5159 62.7297 45.5021 62.7702 45.4802 62.8068C45.4582 62.8434 45.4286 62.8754 45.3932 62.9007L38.1953 68.7401C38.1372 68.7881 38.0629 68.8148 37.9859 68.8154Z" fill="#07373B"/>
<path d="M45.1825 64.5158C46.2585 64.5158 47.1308 63.6885 47.1308 62.6681C47.1308 61.6476 46.2585 60.8204 45.1825 60.8204C44.1065 60.8204 43.2342 61.6476 43.2342 62.6681C43.2342 63.6885 44.1065 64.5158 45.1825 64.5158Z" fill="#07373B"/>
<path d="M51.379 36.7052C51.3228 36.7051 51.2678 36.6912 51.2189 36.6649L30.9481 25.7749C30.8781 25.7324 30.8279 25.6662 30.8079 25.5897C30.7878 25.5132 30.7994 25.4323 30.8403 25.3637C30.8811 25.2951 30.9482 25.244 31.0275 25.2208C31.1069 25.1977 31.1925 25.2044 31.2668 25.2395L51.5377 36.1296C51.6003 36.1628 51.6494 36.2148 51.6774 36.2775C51.7054 36.3402 51.7106 36.4099 51.6923 36.4757C51.6739 36.5416 51.6331 36.5997 51.5761 36.641C51.5191 36.6823 51.4493 36.7044 51.3776 36.7039L51.379 36.7052Z" fill="#07373B"/>
<path d="M51.379 38.2437C52.455 38.2437 53.3273 37.4164 53.3273 36.396C53.3273 35.3755 52.455 34.5482 51.379 34.5482C50.303 34.5482 49.4307 35.3755 49.4307 36.396C49.4307 37.4164 50.303 38.2437 51.379 38.2437Z" fill="#07373B"/>
<path d="M73.3108 44.4313C73.2685 44.4342 73.226 44.4292 73.1857 44.4165C73.1455 44.4038 73.1082 44.3837 73.0762 44.3573C73.0441 44.3309 73.0178 44.2988 72.9988 44.2628C72.9798 44.2268 72.9684 44.1876 72.9653 44.1474C72.9623 44.1072 72.9676 44.0669 72.981 44.0286C72.9943 43.9904 73.0155 43.955 73.0433 43.9245C73.071 43.8941 73.1048 43.8691 73.1428 43.851C73.1807 43.833 73.222 43.8222 73.2643 43.8193L99.0927 40.2265C99.1347 40.2207 99.1775 40.2228 99.2187 40.2328C99.2599 40.2427 99.2986 40.2602 99.3327 40.2843C99.3667 40.3085 99.3954 40.3387 99.4172 40.3734C99.4389 40.4081 99.4532 40.4465 99.4593 40.4864C99.4654 40.5263 99.4632 40.567 99.4528 40.6061C99.4423 40.6452 99.4239 40.682 99.3985 40.7143C99.3731 40.7467 99.3412 40.774 99.3047 40.7946C99.2682 40.8152 99.2277 40.8288 99.1857 40.8346L73.3587 44.4261L73.3108 44.4313Z" fill="#07373B"/>
<path d="M73.3108 45.9711C74.3868 45.9711 75.2591 45.1438 75.2591 44.1234C75.2591 43.1029 74.3868 42.2756 73.3108 42.2756C72.2348 42.2756 71.3625 43.1029 71.3625 44.1234C71.3625 45.1438 72.2348 45.9711 73.3108 45.9711Z" fill="#07373B"/>
<path d="M66.3495 30.2265C66.2863 30.2262 66.2245 30.2084 66.1717 30.1752C66.119 30.142 66.0777 30.0949 66.0528 30.0396C66.0279 29.9844 66.0206 29.9234 66.0318 29.8643C66.0429 29.8051 66.0721 29.7504 66.1156 29.7068L77.7341 18.2112C77.7936 18.1521 77.8754 18.1178 77.9615 18.116C78.0475 18.1142 78.1309 18.1449 78.1931 18.2014C78.2553 18.2579 78.2914 18.3356 78.2933 18.4174C78.2952 18.4991 78.2629 18.5783 78.2034 18.6374L66.5848 30.133C66.5543 30.1628 66.5177 30.1865 66.4772 30.2025C66.4368 30.2186 66.3934 30.2268 66.3495 30.2265Z" fill="#07373B"/>
<path d="M66.3495 31.7663C67.4255 31.7663 68.2978 30.939 68.2978 29.9186C68.2978 28.8981 67.4255 28.0708 66.3495 28.0708C65.2735 28.0708 64.4013 28.8981 64.4013 29.9186C64.4013 30.939 65.2735 31.7663 66.3495 31.7663Z" fill="#07373B"/>
<path d="M26.6698 49.9978C26.6325 49.9979 26.5954 49.9917 26.5603 49.9796L19.5717 47.594C19.5289 47.5825 19.4891 47.5627 19.4547 47.536C19.4204 47.5092 19.3922 47.476 19.3719 47.4384C19.3515 47.4009 19.3396 47.3598 19.3367 47.3177C19.3338 47.2755 19.3401 47.2333 19.3552 47.1936C19.3702 47.1538 19.3937 47.1175 19.4241 47.0867C19.4546 47.056 19.4914 47.0315 19.5322 47.0148C19.5731 46.9982 19.617 46.9896 19.6615 46.9898C19.7059 46.99 19.7499 46.9988 19.7906 47.0158L26.7792 49.4014C26.8501 49.4266 26.9095 49.4744 26.9471 49.5368C26.9847 49.5991 26.9982 49.672 26.9852 49.7428C26.9722 49.8136 26.9336 49.8778 26.876 49.9244C26.8184 49.971 26.7454 49.997 26.6698 49.9978Z" fill="#07373B"/>
<path d="M26.6698 51.5441C27.7458 51.5441 28.618 50.7169 28.618 49.6964C28.618 48.6759 27.7458 47.8487 26.6698 47.8487C25.5938 47.8487 24.7215 48.6759 24.7215 49.6964C24.7215 50.7169 25.5938 51.5441 26.6698 51.5441Z" fill="#07373B"/>
<path d="M82.0917 49.608C82.0387 49.608 81.9866 49.5957 81.9398 49.5721C81.893 49.5485 81.853 49.5144 81.8233 49.4727C81.7936 49.431 81.7751 49.3831 81.7694 49.3331C81.7637 49.283 81.7711 49.2325 81.7907 49.1857L84.7008 42.3835C84.7351 42.3106 84.7978 42.2532 84.8758 42.2234C84.9538 42.1936 85.0409 42.1937 85.1188 42.2237C85.1967 42.2537 85.2592 42.3112 85.2933 42.3842C85.3274 42.4571 85.3303 42.5398 85.3015 42.6148L82.3914 49.417C82.3671 49.4736 82.3257 49.522 82.2723 49.556C82.2189 49.59 82.156 49.6081 82.0917 49.608Z" fill="#07373B"/>
<path d="M82.0917 51.1465C83.1677 51.1465 84.04 50.3192 84.04 49.2988C84.04 48.2783 83.1677 47.4511 82.0917 47.4511C81.0157 47.4511 80.1435 48.2783 80.1435 49.2988C80.1435 50.3192 81.0157 51.1465 82.0917 51.1465Z" fill="#07373B"/>
<path d="M34.783 43.831C34.7088 43.831 34.6368 43.8067 34.5793 43.7622C34.5217 43.7177 34.4821 43.6557 34.467 43.5867L32.7786 35.9347C32.764 35.8562 32.7819 35.7754 32.8287 35.7092C32.8755 35.643 32.9474 35.5966 33.0294 35.5798C33.1115 35.563 33.1972 35.577 33.2686 35.619C33.3399 35.6609 33.3914 35.7275 33.4121 35.8047L35.1005 43.4568C35.1093 43.4963 35.1097 43.5371 35.1019 43.5767C35.0941 43.6164 35.0781 43.6543 35.0549 43.6881C35.0316 43.7219 35.0015 43.751 34.9664 43.7737C34.9312 43.7965 34.8917 43.8124 34.8501 43.8206C34.8281 43.8262 34.8057 43.8297 34.783 43.831Z" fill="#07373B"/>
<path d="M34.7858 45.3708C35.8618 45.3708 36.7341 44.5435 36.7341 43.523C36.7341 42.5026 35.8618 41.6753 34.7858 41.6753C33.7098 41.6753 32.8375 42.5026 32.8375 43.523C32.8375 44.5435 33.7098 45.3708 34.7858 45.3708Z" fill="#07373B"/>
<path d="M19.3582 97.2757C21.2018 98.5462 22.8539 100.05 24.2686 101.746C25.7131 103.433 26.9703 105.257 28.0201 107.19C30.2322 111.179 31.4101 115.611 31.4557 120.119C31.4957 124.781 29.9866 129.336 27.1432 133.137C25.7589 134.959 24.0826 136.563 22.1753 137.892C21.2522 138.544 20.2775 139.129 19.2598 139.639C18.2468 140.135 17.1985 140.563 16.1225 140.92C18.7336 137.777 20.9496 134.355 22.7253 130.724C24.2301 127.369 24.9956 123.756 24.9746 120.108C24.9212 116.33 24.3537 112.574 23.2863 108.934C22.2492 105.134 20.8578 101.327 19.3582 97.2757Z" fill="#07373B"/>
</svg>
