<svg xmlns="http://www.w3.org/2000/svg" width="80" height="90.001" viewBox="0 0 80 90.001">
  <g id="Group_1131" data-name="Group 1131" transform="translate(831.375 -7337.861)">
    <g id="emoji_events_black_24dp" transform="translate(-817.985 7377.302)">
      <rect id="Rectangle_217" data-name="Rectangle 217" width="50.56" height="50.56" fill="none"/>
      <path id="Path_446" data-name="Path 446" d="M45.8,8.35h-5.35V3H13.7V8.35H8.35A5.366,5.366,0,0,0,3,13.7v2.675A13.353,13.353,0,0,0,14.744,29.591,13.4,13.4,0,0,0,24.4,37.509V45.8H13.7v5.35H40.452V45.8h-10.7V37.509a13.4,13.4,0,0,0,9.657-7.918A13.353,13.353,0,0,0,51.152,16.376V13.7A5.366,5.366,0,0,0,45.8,8.35ZM8.35,16.376V13.7H13.7V23.919A8.053,8.053,0,0,1,8.35,16.376ZM27.076,32.426A8.049,8.049,0,0,1,19.051,24.4V8.35H35.1V24.4A8.049,8.049,0,0,1,27.076,32.426ZM45.8,16.376a8.053,8.053,0,0,1-5.35,7.544V13.7H45.8Z" transform="translate(-1.796 -1.796)" fill="#56c6d5"/>
    </g>
    <g id="star_rate_black_24dp" transform="translate(-783.476 7348.812)">
      <rect id="Rectangle_218" data-name="Rectangle 218" width="32.102" height="32.102" fill="none"/>
      <path id="Path_447" data-name="Path 447" d="M17.248,12.506l1.433,4.742h4.3l-3.461,2.47,1.418,4.59L17.248,21.5l-3.69,2.806,1.418-4.59-3.461-2.47h4.3l1.433-4.742M17.248,2l-3.69,12.2H2l9.408,6.724L7.84,32.5l9.408-7.151L26.672,32.5,23.088,20.923,32.5,14.2H20.938L17.248,2Z" transform="translate(-1.197 -1.197)" fill="#56c6d5"/>
    </g>
    <g id="favorite_border_black_24dp" transform="translate(-831.375 7337.861)">
      <path id="Path_438" data-name="Path 438" d="M0,0H45.468V45.468H0Z" fill="none"/>
      <path id="Path_439" data-name="Path 439" d="M26.313,3a10.365,10.365,0,0,0-7.545,3.259A10.365,10.365,0,0,0,11.222,3C6.058,3,2,6.773,2,11.576c0,5.894,5.7,10.7,14.336,17.994l2.431,2.043L21.2,29.555c8.635-7.282,14.336-12.084,14.336-17.978C35.535,6.773,31.477,3,26.313,3ZM18.935,27.247l-.168.156-.168-.156C10.618,20.526,5.353,16.082,5.353,11.576a5.54,5.54,0,0,1,5.869-5.457A6.582,6.582,0,0,1,17.208,9.8h3.136a6.538,6.538,0,0,1,5.969-3.68,5.54,5.54,0,0,1,5.869,5.457C32.181,16.082,26.917,20.526,18.935,27.247Z" transform="translate(3.966 5.95)" fill="#56c6d5"/>
    </g>
  </g>
</svg>
