<?xml version="1.0" encoding="utf-8"?>
<!-- Generator: Adobe Illustrator 25.0.0, SVG Export Plug-In . SVG Version: 6.00 Build 0)  -->
<svg version="1.1" id="Layer_1" xmlns="http://www.w3.org/2000/svg" xmlns:xlink="http://www.w3.org/1999/xlink" x="0px" y="0px"
	 viewBox="0 0 44 44" style="enable-background:new 0 0 44 44;" xml:space="preserve">
<g>
	<g id="Group_765-2" transform="translate(0 0)">
		<path id="Path_300" style="fill-rule:evenodd;clip-rule:evenodd;fill:#39F5AD;" d="M21.99,0.5C9.85,0.49,0.01,10.36,0,22.53
			c0,9.5,6.06,17.93,15.04,20.93c1.1,0.2,1.5-0.48,1.5-1.06c0-0.52-0.02-1.91-0.03-3.75c-6.11,1.33-7.4-2.96-7.4-2.96
			c-0.4-1.33-1.27-2.48-2.44-3.22c-2-1.37,0.15-1.34,0.15-1.34c1.41,0.2,2.65,1.03,3.37,2.27c1.96,3.37,5.14,2.39,6.39,1.83
			c0.1-1.12,0.6-2.16,1.4-2.95C13.1,31.73,7.97,29.84,7.97,21.39c-0.03-2.19,0.78-4.31,2.26-5.91c-0.67-1.9-0.59-3.99,0.21-5.83
			c0,0,1.85-0.59,6.05,2.26c3.6-0.99,7.4-0.99,11.01,0c4.2-2.85,6.04-2.26,6.04-2.26c0.81,1.85,0.89,3.93,0.22,5.83
			c1.48,1.61,2.29,3.72,2.26,5.91c0,8.47-5.14,10.33-10.04,10.88c1.06,1.08,1.61,2.57,1.49,4.08c0,2.95-0.03,5.32-0.03,6.05
			c0,0.59,0.4,1.28,1.51,1.06c11.52-3.84,17.75-16.33,13.91-27.88C39.88,6.57,31.46,0.49,21.99,0.5"/>
	</g>
</g>
</svg>
