<?xml version="1.0" encoding="utf-8"?>
<!-- Generator: Adobe Illustrator 25.0.0, SVG Export Plug-In . SVG Version: 6.00 Build 0)  -->
<svg version="1.1" id="Layer_1" xmlns="http://www.w3.org/2000/svg" xmlns:xlink="http://www.w3.org/1999/xlink" x="0px" y="0px"
	 viewBox="0 0 44 44" style="enable-background:new 0 0 44 44;" xml:space="preserve">
<g id="Group_173" transform="translate(0 -36)">
	<path id="Path_114" style="fill:#39F5AD;" d="M22,36C9.85,36,0,45.85,0,58s9.85,22,22,22s22-9.85,22-22S34.15,36,22,36z
		 M15.61,69.26h-5.36V53.14h5.36V69.26z M12.93,50.94h-0.04c-1.69-0.01-3.05-1.39-3.04-3.08c0.01-1.69,1.39-3.05,3.08-3.04
		s3.05,1.39,3.04,3.08C15.96,49.57,14.6,50.93,12.93,50.94z M34.93,69.26h-5.36v-8.62c0-2.17-0.78-3.65-2.71-3.65
		c-1.24,0.01-2.34,0.79-2.75,1.96c-0.14,0.42-0.2,0.86-0.18,1.31v9h-5.36c0,0,0.07-14.61,0-16.12h5.36v2.29
		c0.99-1.72,2.85-2.74,4.83-2.66c3.52,0,6.17,2.3,6.17,7.25L34.93,69.26z"/>
</g>
</svg>
