<?xml version="1.0" encoding="UTF-8"?>
<svg xmlns="http://www.w3.org/2000/svg" xmlns:xlink="http://www.w3.org/1999/xlink" viewBox="0 0 44 44" width="44px" height="44px">
<g id="surface70053446">
<path style=" stroke:none;fill-rule:nonzero;fill:rgb(22.352941%,96.078432%,67.843139%);fill-opacity:1;" d="M 22 0.140625 C 34.074219 0.140625 43.859375 9.925781 43.859375 22 C 43.859375 34.074219 34.074219 43.859375 22 43.859375 C 9.925781 43.859375 0.140625 34.074219 0.140625 22 C 0.140625 9.925781 9.925781 0.140625 22 0.140625 Z M 29.539062 30.910156 C 29.941406 29.675781 31.828125 17.382812 32.058594 14.960938 C 32.128906 14.226562 31.898438 13.738281 31.441406 13.519531 C 30.894531 13.257812 30.082031 13.386719 29.136719 13.730469 C 27.84375 14.195312 11.292969 21.222656 10.335938 21.628906 C 9.429688 22.011719 8.574219 22.433594 8.574219 23.042969 C 8.574219 23.46875 8.828125 23.710938 9.527344 23.960938 C 10.253906 24.21875 12.089844 24.773438 13.171875 25.074219 C 14.214844 25.363281 15.402344 25.113281 16.066406 24.699219 C 16.769531 24.261719 24.910156 18.8125 25.492188 18.335938 C 26.078125 17.859375 26.542969 18.472656 26.066406 18.949219 C 25.589844 19.425781 20.003906 24.847656 19.265625 25.597656 C 18.371094 26.511719 19.007812 27.457031 19.605469 27.832031 C 20.292969 28.265625 25.21875 31.570312 25.960938 32.101562 C 26.703125 32.632812 27.457031 32.871094 28.144531 32.871094 C 28.835938 32.871094 29.199219 31.964844 29.539062 30.910156 Z M 29.539062 30.910156 "/>
</g>
</svg>
