<?xml version="1.0" encoding="utf-8"?>
<!-- Generator: Adobe Illustrator 25.0.0, SVG Export Plug-In . SVG Version: 6.00 Build 0)  -->
<svg version="1.1" id="Layer_1" xmlns="http://www.w3.org/2000/svg" xmlns:xlink="http://www.w3.org/1999/xlink" x="0px" y="0px"
	 viewBox="0 0 44 44" style="enable-background:new 0 0 44 44;" xml:space="preserve">
<g id="Group_172" transform="translate(0 -96)">
	<path id="Path_113" style="fill:#39F5AD;" d="M22,96c-12.15,0-22,9.85-22,22c0,12.15,9.85,22,22,22s22-9.85,22-22
		C44,105.85,34.15,96,22,96z M32.04,113.15c0.01,0.22,0.01,0.43,0.01,0.65c0.05,7.88-6.29,14.31-14.17,14.37c-0.06,0-0.13,0-0.19,0
		l0,0c-2.74,0-5.43-0.78-7.74-2.27c0.4,0.05,0.8,0.07,1.2,0.07c2.27,0,4.48-0.76,6.27-2.16c-2.16-0.04-4.06-1.45-4.72-3.51
		c0.76,0.15,1.54,0.12,2.28-0.09c-2.36-0.48-4.05-2.55-4.05-4.95c0-0.02,0-0.04,0-0.06c0.7,0.39,1.49,0.61,2.29,0.63
		c-2.22-1.48-2.9-4.43-1.56-6.74c2.56,3.16,6.35,5.07,10.41,5.28c-0.63-2.72,1.07-5.43,3.79-6.06c1.75-0.4,3.58,0.15,4.81,1.46
		c1.13-0.22,2.22-0.64,3.21-1.23c-0.38,1.17-1.17,2.16-2.22,2.79c1-0.12,1.98-0.39,2.9-0.8C33.88,111.55,33.02,112.44,32.04,113.15
		L32.04,113.15z"/>
</g>
</svg>
