<?xml version="1.0" encoding="utf-8"?>
<!-- Generator: Adobe Illustrator 25.0.0, SVG Export Plug-In . SVG Version: 6.00 Build 0)  -->
<svg version="1.1" id="Layer_1" xmlns="http://www.w3.org/2000/svg" xmlns:xlink="http://www.w3.org/1999/xlink" x="0px" y="0px"
	 viewBox="0 0 44 44" style="enable-background:new 0 0 44 44;" xml:space="preserve">
<g id="Group_171" transform="translate(60 -36)">
	<path id="Path_111" style="fill:#39F5AD;" d="M-40.74,62.12l7.16-4.12l-7.16-4.12V62.12z"/>
	<path id="Path_112" style="fill:#39F5AD;" d="M-38,36c-12.15,0-22,9.85-22,22s9.85,22,22,22s22-9.85,22-22S-25.85,36-38,36z
		 M-24.25,58.02c0.01,2.22-0.18,4.43-0.57,6.61c-0.32,1.18-1.24,2.1-2.42,2.42C-29.39,67.62-38,67.62-38,67.62s-8.58,0-10.76-0.59
		c-1.18-0.32-2.1-1.24-2.42-2.42c-0.76-4.38-0.76-8.85,0-13.23c0.33-1.18,1.24-2.11,2.42-2.45C-46.61,48.37-38,48.37-38,48.37
		s8.61,0,10.76,0.59c1.18,0.32,2.1,1.24,2.42,2.42C-24.42,53.57-24.23,55.8-24.25,58.02L-24.25,58.02z"/>
</g>
</svg>
