<svg xmlns="http://www.w3.org/2000/svg" width="44" height="44" viewBox="0 0 44 44"><defs><style>.a{fill:#39f5ad;}</style></defs><g transform="translate(0 0)"><path class="a" d="M186,42.276a22,22,0,1,0,22,22,22,22,0,0,0-22-22Zm-6.393,33.258h-5.358V59.414h5.358Zm-2.679-18.321h-.035a3.061,3.061,0,1,1,.035,0Zm22,18.321H193.57V66.91c0-2.167-.776-3.645-2.714-3.645a2.933,2.933,0,0,0-2.749,1.959,3.668,3.668,0,0,0-.176,1.308v9h-5.358s.07-14.607,0-16.12h5.358V61.7a5.319,5.319,0,0,1,4.829-2.661c3.525,0,6.168,2.3,6.168,7.255Zm0,0" transform="translate(-164 -42.276)"/></g></svg>