<svg xmlns="http://www.w3.org/2000/svg" width="44" height="44" viewBox="0 0 44 44"><defs><style>.a{fill:#39f5ad;}</style></defs><path class="a" d="M186,42.276a22,22,0,1,0,22,22,22,22,0,0,0-22-22Zm10.045,17.153q.015.325.014.653a14.27,14.27,0,0,1-14.367,14.367h0a14.293,14.293,0,0,1-7.74-2.268,10.268,10.268,0,0,0,1.2.07,10.132,10.132,0,0,0,6.272-2.161,5.055,5.055,0,0,1-4.718-3.507,5.03,5.03,0,0,0,2.281-.087,5.051,5.051,0,0,1-4.051-4.95c0-.023,0-.043,0-.064a5.015,5.015,0,0,0,2.287.631,5.054,5.054,0,0,1-1.563-6.741,14.337,14.337,0,0,0,10.409,5.276,5.052,5.052,0,0,1,8.6-4.6,10.129,10.129,0,0,0,3.207-1.226,5.07,5.07,0,0,1-2.221,2.793,10.07,10.07,0,0,0,2.9-.8,10.263,10.263,0,0,1-2.519,2.615Zm0,0" transform="translate(-164 -42.276)"/></svg>