<svg xmlns="http://www.w3.org/2000/svg" width="44" height="44" viewBox="0 0 44 44"><defs><style>.a{fill:#39f5ad;}</style></defs><g transform="translate(0 0)"><path class="a" d="M388.113,258.558l7.156-4.122-7.156-4.122Zm0,0" transform="translate(-368.853 -232.437)"/><path class="a" d="M186,42.276a22,22,0,1,0,22,22,22,22,0,0,0-22-22ZM199.747,64.3a36.31,36.31,0,0,1-.566,6.613,3.445,3.445,0,0,1-2.423,2.423C194.606,73.9,186,73.9,186,73.9s-8.583,0-10.757-.589a3.445,3.445,0,0,1-2.423-2.423,38.89,38.89,0,0,1,0-13.226,3.515,3.515,0,0,1,2.423-2.446c2.151-.566,10.757-.566,10.757-.566s8.606,0,10.757.589a3.445,3.445,0,0,1,2.423,2.423,34.455,34.455,0,0,1,.566,6.635Zm0,0" transform="translate(-164 -42.276)"/></g></svg>