<svg xmlns="http://www.w3.org/2000/svg" width="209.581" height="192.292" viewBox="0 0 209.581 192.292"><defs><style>.a{fill:#70d7cc;}</style></defs><g transform="matrix(-0.259, -0.966, 0.966, -0.259, -1016.953, 1419.197)"><g transform="translate(907.748 1333.032)"><g transform="translate(0 180) rotate(-90)"><path class="a" d="M10.808,0A10.824,10.824,0,1,0,21.621,10.825,10.826,10.826,0,0,0,10.808,0Z" transform="translate(29.653 136.726)"/><path class="a" d="M32.148,134.979A74.814,74.814,0,0,1,19.984,68.552,36.159,36.159,0,0,0,67.867,18.841,74.7,74.7,0,0,1,155.6,51.088a23.915,23.915,0,0,1,4.791-1.918A79.769,79.769,0,0,0,65.02,14.427,36.586,36.586,0,0,0,61.707,10.6,36.164,36.164,0,1,0,15.468,65.858a79.937,79.937,0,0,0,12.958,72.651A15.144,15.144,0,0,1,32.148,134.979Z" transform="translate(0 0)"/><path class="a" d="M13.9,0a13.888,13.888,0,0,0-1.732.12A13.777,13.777,0,0,0,7.278,1.68,13.9,13.9,0,0,0,13.314,27.8c.2.009.388.03.586.03A13.913,13.913,0,0,0,13.9,0Z" transform="translate(152.206 56.215)"/><path class="a" d="M115.536.549q-.055,2.572-.282,5.1A74.847,74.847,0,0,1,40.823,73.76,74.227,74.227,0,0,1,3.052,63.473,15.072,15.072,0,0,1,0,67.6a79.3,79.3,0,0,0,40.824,11.27,79.957,79.957,0,0,0,79.584-73.6q.2-2.612.235-5.27a18.949,18.949,0,0,1-4.587.563C115.882.563,115.709.554,115.536.549Z" transform="translate(50.854 90.857)"/></g></g></g></svg>