<svg xmlns="http://www.w3.org/2000/svg" width="157.221" height="164.503" viewBox="0 0 157.221 164.503"><defs><style>.a{fill:#70d7cc;stroke:rgba(0,0,0,0);}</style></defs><g transform="translate(0.51 0.503)"><path class="a" d="M255.308,755.448c-2.841-5.642-8.131-16.142-10.593-39.514-3.8-36.051-33.44-55.581-44.541-60.065a71.186,71.186,0,0,0-28.429-4.894c-18.326.6-34.8,8.163-48.966,22.465a62.889,62.889,0,0,0-18.224,38.105,46.016,46.016,0,0,0,15.774,40.21,42.761,42.761,0,0,0,40.281,8.8c9.648-2.8,16.905-8.471,19.909-15.567a17.914,17.914,0,0,0,1.411-8.34,41.377,41.377,0,0,0,5.625,1.018,26.859,26.859,0,0,0,12.434-1.327,19.315,19.315,0,0,0,5.686-3.381,20.226,20.226,0,0,0,4.177-5.059,26.094,26.094,0,0,0,2.488-5.8,36.63,36.63,0,0,0,1.134-5.165l.37-.5c.282-.4.552-.8.811-1.2q.779-1.213,1.446-2.489a29.313,29.313,0,0,0,2.178-5.389,22.831,22.831,0,0,0,.9-5.9A19.256,19.256,0,0,0,219,698.4c-.072-.507-.16-1.01-.277-1.509-.106-.52-.227-.93-.354-1.406a22.11,22.11,0,0,0-2.295-5.478,17.93,17.93,0,0,0-3.954-4.6,24.142,24.142,0,0,0-9.433-4.56q-.246-.388-.5-.76c-.366-.54-.756-1.056-1.153-1.566a29.542,29.542,0,0,0-2.6-2.88,23.646,23.646,0,0,0-6.408-4.5,19.14,19.14,0,0,0-7.724-1.845,21.386,21.386,0,0,0-6.783,1c-.218-.129-.433-.252-.66-.378q-.767-.424-1.553-.8a29.017,29.017,0,0,0-3.236-1.323,21.169,21.169,0,0,0-7.023-1.2,14.224,14.224,0,0,0-7.12,1.938,15.429,15.429,0,0,0-4.68,4.409c-1.006.062-1.952.172-2.932.312a36.536,36.536,0,0,0-3.755.756,26.375,26.375,0,0,0-7.186,2.942,15.919,15.919,0,0,0-5.662,5.679,15.157,15.157,0,0,0-1.888,7.194,36.065,36.065,0,0,0-2.754,2.828,35.317,35.317,0,0,0-2.787,3.63,22.474,22.474,0,0,0-3.62,8.545,14.483,14.483,0,0,0-.032,4.78,13.774,13.774,0,0,0,1.593,4.5,20.2,20.2,0,0,0,5.938,6.328,19.123,19.123,0,0,0,.148,3.538,17.306,17.306,0,0,0,1,3.963,13.9,13.9,0,0,0,2.012,3.588,12.573,12.573,0,0,0,3.04,2.763,13.8,13.8,0,0,0,3.695,1.664,18.348,18.348,0,0,0,3.925.708,25.768,25.768,0,0,0,7.848-.56,14.349,14.349,0,0,0,6.956-3.7,12.621,12.621,0,0,0,3.4-7.077,18.974,18.974,0,0,0-.432-7.337.332.332,0,0,0,.183-.005c.042-.014,3.977-1.31,9.948,1.825a2.084,2.084,0,1,0,.251-.656,19.374,19.374,0,0,0-5.033-1.85,12.8,12.8,0,0,1-1.521-4.707,16.091,16.091,0,0,1,2.208-10.1,2.055,2.055,0,0,0,2.181-.356,2.111,2.111,0,0,0,.178-2.96,2.063,2.063,0,0,0-2.932-.18,2.021,2.021,0,0,0-.008,3.119,16.792,16.792,0,0,0-2.307,10.6,13.95,13.95,0,0,0,1.327,4.423,10.28,10.28,0,0,0-4.517.177.344.344,0,0,0-.113.068,19.218,19.218,0,0,0-1.356-3.515,11.389,11.389,0,0,0-2.255-3.151,11.326,11.326,0,0,1,2.139,3.208,19.182,19.182,0,0,1,1.261,3.655,18.748,18.748,0,0,1,.288,7.649,11.953,11.953,0,0,1-3.434,6.6,13.435,13.435,0,0,1-6.639,3.247,25.4,25.4,0,0,1-7.258.321l.72-6.551,6.018-5.2a2.044,2.044,0,0,0,.851.438,2.076,2.076,0,0,0,2.5-1.563A2.1,2.1,0,0,0,152.89,720a2.076,2.076,0,0,0-2.5,1.563,2.1,2.1,0,0,0,.243,1.556l-5.453,4.709,1.105-10.052a2.047,2.047,0,0,0,1.236-.5,2.111,2.111,0,0,0,.22-2.957,2.064,2.064,0,0,0-2.929-.222,2.111,2.111,0,0,0-.22,2.957,2.062,2.062,0,0,0,1.005.647l-1.936,17.615a17.079,17.079,0,0,1-3.2-.7,12.4,12.4,0,0,1-3.294-1.579,11.334,11.334,0,0,1-4.308-5.705,15.576,15.576,0,0,1-.813-3.593,16.973,16.973,0,0,1-.021-3.66.96.96,0,0,0-.383-.88,18.722,18.722,0,0,1-5.611-6.112,11.676,11.676,0,0,1-1.125-7.861c.024-.124.058-.246.086-.369a.347.347,0,0,0,.124.081l5.525,2.007a2.1,2.1,0,0,0,.153,1.243,2.069,2.069,0,0,0,2.752,1.036,2.106,2.106,0,0,0,1.025-2.78,2.062,2.062,0,0,0-3.694-.154l-5.528-2.008a.332.332,0,0,0-.224,0,21,21,0,0,1,3.214-6.585,33.7,33.7,0,0,1,5.531-6.068,17.844,17.844,0,0,1,5.374.294l1.334,6.441a2.051,2.051,0,0,0-.764.516,2.112,2.112,0,0,0,.1,2.964,2.063,2.063,0,0,0,2.935-.105,2.112,2.112,0,0,0-.1-2.964,2.059,2.059,0,0,0-1.5-.56l-1.268-6.122a19.961,19.961,0,0,1,11.586,8.455,2.1,2.1,0,0,0-.595,2.118,2.074,2.074,0,0,0,2.571,1.434,2.1,2.1,0,0,0,1.421-2.6,2.074,2.074,0,0,0-2.571-1.434,2.024,2.024,0,0,0-.245.1,20.456,20.456,0,0,0-12.413-8.819.344.344,0,0,0-.274-.063h0a19.078,19.078,0,0,0-5.029-.4,1.4,1.4,0,0,0,.094-.466,12.5,12.5,0,0,1,1.68-6.331,11.808,11.808,0,0,1,2.62-3.019l18.249,10.436a2.066,2.066,0,1,0,1.563-1.349,2.054,2.054,0,0,0-1.222.743L145.67,684.2a11.96,11.96,0,0,1,10.285-1.755,2.1,2.1,0,0,0,.445,1.689,2.063,2.063,0,0,0,2.925.266,2.111,2.111,0,0,0,.264-2.954,2.06,2.06,0,0,0-3.412.338,12.612,12.612,0,0,0-11.16,2.042l-5.6-3.2a15.36,15.36,0,0,1,1.522-1,23.258,23.258,0,0,1,6.39-2.42,33.322,33.322,0,0,1,3.432-.6,30.093,30.093,0,0,1,3.421-.233,1.735,1.735,0,0,0,1.417-.753l.013-.019a12.3,12.3,0,0,1,4.1-3.911,10.543,10.543,0,0,1,5.345-1.295,17.4,17.4,0,0,1,5.723,1.143,25,25,0,0,1,2.764,1.212c.45.229.893.473,1.327.728s.885.539,1.217.773a2.025,2.025,0,0,0,1.779.271l.045-.014a17.685,17.685,0,0,1,6.241-.913c.331.017.66.049.988.088l-9,9.479-.01-.008a2.065,2.065,0,0,0-2.882.573,2.109,2.109,0,0,0,.567,2.909,2.064,2.064,0,0,0,2.882-.573,2.107,2.107,0,0,0-.063-2.413l6.267-6.6c1.123.52,6.221,3.3,5.375,10.634a2.068,2.068,0,0,0-1.514,1.082,2.107,2.107,0,0,0,.863,2.835,2.067,2.067,0,0,0,2.808-.871,2.107,2.107,0,0,0-.863-2.835,2.041,2.041,0,0,0-.6-.2c.8-7.246-4.039-10.37-5.57-11.169l2.581-2.718a14.836,14.836,0,0,1,4.127,1.374,19.15,19.15,0,0,1,5.093,3.787,24.916,24.916,0,0,1,2.12,2.471c.322.438.641.88.931,1.334.147.226.29.454.424.68s.281.482.356.63a2.344,2.344,0,0,0,1.5,1.209l.062.016a20.117,20.117,0,0,1,8.276,4,13.9,13.9,0,0,1,4.239,7.085,19.289,19.289,0,0,1-11.266-1.911,2.1,2.1,0,0,0,.093-1.459,2.074,2.074,0,0,0-2.6-1.389,2.1,2.1,0,0,0-1.376,2.62,2.054,2.054,0,0,0,3.487.82,20.85,20.85,0,0,0,5.735,1.91l-22.823,3.379a2.064,2.064,0,0,0-3.56-.707,2.111,2.111,0,0,0,.251,2.955,2.063,2.063,0,0,0,2.927-.253,2.088,2.088,0,0,0,.478-1.3l9.848-1.458-2.108,5.245a2.044,2.044,0,0,0-1.462.21,2.107,2.107,0,0,0-.8,2.854,2.066,2.066,0,0,0,2.827.8,2.107,2.107,0,0,0,.8-2.854,2.061,2.061,0,0,0-.725-.751l2.261-5.626,14.867-2.2c.217.007.428.012.629.012a15.367,15.367,0,0,0,2.693-.218c.08.328.168.678.214.966.076.355.128.715.171,1.077a13.821,13.821,0,0,1,.079,2.194,17.258,17.258,0,0,1-.8,4.428A23.623,23.623,0,0,1,211.1,710c-.381.688-.8,1.36-1.236,2.01-.219.326-.447.644-.679.952l-.348.452-.315.38-.022.026a3.1,3.1,0,0,0-.667,1.488,25.2,25.2,0,0,1-3.183,9.383,13.629,13.629,0,0,1-3.034,3.48l-3.271-10.6a2.077,2.077,0,1,0-1.543.139,2.043,2.043,0,0,0,.883.067l1.757,5.695-6.213-1.554a2.094,2.094,0,0,0-.336-1.322,2.065,2.065,0,0,0-2.881-.578,2.11,2.11,0,0,0-.572,2.909,2.065,2.065,0,0,0,3.628-.331l6.614,1.654,1.346,4.363a12.763,12.763,0,0,1-3.24,1.692,20.529,20.529,0,0,1-9.465.7,34.961,34.961,0,0,1-4.952-1.043c-.818-.234-1.631-.495-2.431-.781-.4-.143-.8-.292-1.184-.447-.371-.148-.809-.333-1.075-.459l-.044-.02-.076-.034a3.417,3.417,0,0,0-1.258-.278l-.046,0h-.073a3.4,3.4,0,0,0-1.887.381,3.5,3.5,0,0,0-1.453,4.71,10.51,10.51,0,0,1,.315,9.212c-2.184,5.158-7.818,9.387-15.462,11.6a36,36,0,0,1-33.912-7.417,39.022,39.022,0,0,1-13.371-34.1,56.05,56.05,0,0,1,16.244-33.958c29.062-29.342,60.882-19.685,69.943-16.027.361.146,36.16,15.64,40.236,54.325,2.6,24.65,8.262,35.9,11.3,41.938a20.857,20.857,0,0,1,1.677,3.8c-.589.881-4.1,1.9-6.007,2.454-4.619,1.341-9.856,2.861-11.219,7.677a71.717,71.717,0,0,0-1.376,10.269c-.6,6.286-1.852,19.367-4.38,21.723-3.455,3.22-28.01,3.7-33.724,1.335-7.338-3.033-10.514-7.348-10.624-14.424a3.471,3.471,0,0,0-3.453-3.435h-.055a3.472,3.472,0,0,0-3.4,3.541c.226,14.7,11.281,19.271,14.914,20.773,2.818,1.165,10.055,2,17.772,2,9.437,0,19.591-1.248,23.256-4.664,4.136-3.854,5.377-13.7,6.571-26.178a75.764,75.764,0,0,1,1.143-9.024c.31-1.1,4.327-2.262,6.484-2.889,4.188-1.215,8.519-2.473,10.318-6.107C258.684,762.151,257.194,759.193,255.308,755.448Z" transform="translate(-104.262 -650.937)"/><path class="a" d="M150.994,899.2a26.813,26.813,0,0,0-5.234-5.07c1.6,4.6,3.083,8.915,4.187,13.23a50.238,50.238,0,0,1,1.8,12.676,30.607,30.607,0,0,1-2.4,12.045,58.467,58.467,0,0,1-7.039,11.569,25.957,25.957,0,0,0,3.344-1.454,23.914,23.914,0,0,0,3.107-1.984,24.269,24.269,0,0,0,5.3-5.393,25.34,25.34,0,0,0,4.6-14.771,32.414,32.414,0,0,0-3.662-14.67A35.874,35.874,0,0,0,150.994,899.2Z" transform="translate(-125.135 -783.756)"/></g></svg>