<svg id="master_icon" xmlns="http://www.w3.org/2000/svg" width="22" height="24" viewBox="0 0 22 24">
  <path id="Path_52" data-name="Path 52" d="M261.389,759.039c-2.956-5.836-8.459-16.7-11.02-40.872-3.951-37.29-34.787-57.491-46.334-62.129a74.42,74.42,0,0,0-29.573-5.062c-19.064.626-36.2,8.443-50.937,23.237a64.9,64.9,0,0,0-18.958,39.415,47.459,47.459,0,0,0,16.409,41.591,44.673,44.673,0,0,0,41.9,9.1c10.037-2.893,17.586-8.762,20.711-16.1a18.436,18.436,0,0,0,1.468-8.627,43.255,43.255,0,0,0,5.852,1.054,28.088,28.088,0,0,0,12.935-1.373,20.112,20.112,0,0,0,5.915-3.5,20.949,20.949,0,0,0,4.345-5.233,26.9,26.9,0,0,0,2.588-6,37.706,37.706,0,0,0,1.18-5.343l.385-.522c.294-.41.574-.823.843-1.242q.81-1.255,1.5-2.574a30.216,30.216,0,0,0,2.265-5.575,23.494,23.494,0,0,0,.94-6.106,19.814,19.814,0,0,0-.195-3.15c-.075-.524-.166-1.045-.288-1.56-.11-.537-.236-.962-.368-1.454a22.8,22.8,0,0,0-2.387-5.666,18.571,18.571,0,0,0-4.113-4.761,25.176,25.176,0,0,0-9.812-4.716q-.256-.4-.52-.786c-.381-.559-.786-1.092-1.2-1.62a30.637,30.637,0,0,0-2.7-2.979,24.605,24.605,0,0,0-6.666-4.66,20,20,0,0,0-8.035-1.908,22.367,22.367,0,0,0-7.056,1.038c-.226-.133-.451-.26-.686-.391q-.8-.439-1.615-.829a30.274,30.274,0,0,0-3.367-1.368,22.134,22.134,0,0,0-7.306-1.242,14.859,14.859,0,0,0-7.406,2,16.012,16.012,0,0,0-4.868,4.56c-1.046.064-2.031.178-3.05.323a38.228,38.228,0,0,0-3.907.782,27.52,27.52,0,0,0-7.476,3.043,16.511,16.511,0,0,0-5.89,5.874,15.608,15.608,0,0,0-1.964,7.441,37.44,37.44,0,0,0-2.865,2.925,36.545,36.545,0,0,0-2.9,3.755,23.176,23.176,0,0,0-3.766,8.839,14.9,14.9,0,0,0-.033,4.945,14.194,14.194,0,0,0,1.657,4.651,20.943,20.943,0,0,0,6.177,6.546,19.674,19.674,0,0,0,.154,3.66,17.817,17.817,0,0,0,1.042,4.1,14.353,14.353,0,0,0,2.094,3.711,13.05,13.05,0,0,0,3.163,2.858,14.394,14.394,0,0,0,3.843,1.722,19.191,19.191,0,0,0,4.083.732,26.947,26.947,0,0,0,8.164-.579,14.952,14.952,0,0,0,7.236-3.832,13.025,13.025,0,0,0,3.54-7.321,19.518,19.518,0,0,0-.449-7.589.346.346,0,0,0,.19-.006c.044-.014,4.137-1.355,10.349,1.888a2.15,2.15,0,0,0,2.7,2.523,2.168,2.168,0,1,0-2.443-3.2,20.224,20.224,0,0,0-5.235-1.913,13.19,13.19,0,0,1-1.582-4.869,16.565,16.565,0,0,1,2.3-10.444,2.148,2.148,0,0,0,2.269-.368,2.268,2.268,0,1,0-2.873-.022,17.287,17.287,0,0,0-2.4,10.966,14.37,14.37,0,0,0,1.381,4.575,10.753,10.753,0,0,0-4.7.183.368.368,0,0,0-.118.07,19.807,19.807,0,0,0-1.41-3.635,11.783,11.783,0,0,0-2.346-3.259,11.713,11.713,0,0,1,2.225,3.318,19.77,19.77,0,0,1,1.312,3.781,19.286,19.286,0,0,1,.3,7.912,12.34,12.34,0,0,1-3.572,6.83,14.007,14.007,0,0,1-6.906,3.358,26.558,26.558,0,0,1-7.55.332l.749-6.776,6.261-5.376a2.13,2.13,0,0,0,.885.453,2.176,2.176,0,1,0-1.357-1l-5.673,4.871,1.15-10.4a2.137,2.137,0,0,0,1.286-.513,2.166,2.166,0,1,0-3.047-.23,2.147,2.147,0,0,0,1.046.669l-2.014,18.22a17.847,17.847,0,0,1-3.331-.719,12.932,12.932,0,0,1-3.426-1.634,11.73,11.73,0,0,1-4.482-5.9,16.035,16.035,0,0,1-.846-3.716,17.458,17.458,0,0,1-.022-3.785.991.991,0,0,0-.4-.911,19.405,19.405,0,0,1-5.837-6.322,12.016,12.016,0,0,1-1.171-8.131c.025-.128.061-.255.089-.382a.36.36,0,0,0,.129.084l5.747,2.076a2.2,2.2,0,1,0,.247-.678l-5.751-2.077a.348.348,0,0,0-.233,0,21.665,21.665,0,0,1,3.343-6.811,34.925,34.925,0,0,1,5.754-6.277,18.667,18.667,0,0,1,5.59.3L142.041,700a2.134,2.134,0,0,0-.795.534,2.165,2.165,0,1,0,3.053-.109,2.15,2.15,0,0,0-1.557-.579l-1.32-6.333a20.764,20.764,0,0,1,12.053,8.745,2.142,2.142,0,1,0,.859-.495,2.139,2.139,0,0,0-.255.1,21.281,21.281,0,0,0-12.913-9.122.36.36,0,0,0-.286-.065h0a19.947,19.947,0,0,0-5.232-.409,1.439,1.439,0,0,0,.1-.482,12.87,12.87,0,0,1,1.748-6.549,12.235,12.235,0,0,1,2.725-3.123L159.2,692.915a2.19,2.19,0,1,0,.355-.627l-12.221-6.95a12.5,12.5,0,0,1,10.7-1.815,2.16,2.16,0,1,0,.231-.683,13.176,13.176,0,0,0-11.61,2.112l-5.823-3.311a16.011,16.011,0,0,1,1.583-1.038,24.277,24.277,0,0,1,6.647-2.5,34.809,34.809,0,0,1,3.57-.623,31.442,31.442,0,0,1,3.559-.241,1.809,1.809,0,0,0,1.474-.779l.014-.02a12.768,12.768,0,0,1,4.268-4.046,11.022,11.022,0,0,1,5.56-1.339,18.193,18.193,0,0,1,5.954,1.183,26.088,26.088,0,0,1,2.875,1.254c.468.237.929.49,1.381.753s.921.557,1.266.8a2.117,2.117,0,0,0,1.85.281l.047-.015a18.493,18.493,0,0,1,6.492-.945c.344.017.687.051,1.028.091l-9.362,9.8-.01-.008a2.2,2.2,0,1,0,.525.513l6.519-6.827c1.168.538,6.471,3.418,5.592,11a2.151,2.151,0,0,0-1.575,1.119,2.163,2.163,0,1,0,2.921-.9,2.119,2.119,0,0,0-.626-.208c.827-7.495-4.2-10.727-5.794-11.553l2.685-2.812A15.493,15.493,0,0,1,193.569,676a19.919,19.919,0,0,1,5.3,3.918,25.82,25.82,0,0,1,2.2,2.556c.335.453.666.91.969,1.38.153.234.3.469.441.7s.292.5.37.652a2.435,2.435,0,0,0,1.561,1.25l.065.016a20.978,20.978,0,0,1,8.609,4.142,14.361,14.361,0,0,1,4.41,7.328,20.171,20.171,0,0,1-11.72-1.976,2.2,2.2,0,1,0-.406.613,21.777,21.777,0,0,0,5.966,1.975L187.6,702.053a2.222,2.222,0,1,0,.1.714l10.244-1.508-2.193,5.425a2.137,2.137,0,0,0-1.521.217,2.173,2.173,0,0,0-.829,2.952,2.243,2.243,0,0,0,1.974,1.108,1.933,1.933,0,0,0,.967-.275,2.173,2.173,0,0,0,.829-2.952,2.139,2.139,0,0,0-.755-.777l2.352-5.819,15.466-2.276c.225.007.446.012.654.012a16.06,16.06,0,0,0,2.8-.226c.083.339.174.7.223,1,.079.368.133.74.178,1.114a14.213,14.213,0,0,1,.082,2.269,17.763,17.763,0,0,1-.83,4.58,24.367,24.367,0,0,1-1.931,4.422c-.4.711-.827,1.407-1.285,2.079-.228.337-.465.666-.706.985l-.363.468-.327.393-.023.027a3.2,3.2,0,0,0-.694,1.539,25.963,25.963,0,0,1-3.311,9.706,14.12,14.12,0,0,1-3.156,3.6l-3.4-10.967a2.159,2.159,0,1,0-1.606.144,2.133,2.133,0,0,0,.919.07l1.828,5.891-6.463-1.607a2.148,2.148,0,1,0-.168.7l6.881,1.711,1.4,4.513a13.3,13.3,0,0,1-3.371,1.75,21.471,21.471,0,0,1-9.846.725,36.539,36.539,0,0,1-5.151-1.079c-.851-.242-1.7-.512-2.528-.807-.416-.148-.828-.3-1.232-.463-.386-.153-.841-.344-1.119-.475l-.046-.021-.079-.035a3.565,3.565,0,0,0-1.309-.288l-.048-.005h-.076a3.553,3.553,0,0,0-1.963.394,3.615,3.615,0,0,0-1.511,4.871,10.816,10.816,0,0,1,.328,9.528c-2.271,5.336-8.133,9.71-16.085,12a37.61,37.61,0,0,1-35.277-7.672,40.246,40.246,0,0,1-13.909-35.269,57.844,57.844,0,0,1,16.9-35.125c30.232-30.35,63.334-20.362,72.759-16.578.375.151,37.616,16.177,41.856,56.192,2.7,25.5,8.594,37.13,11.76,43.38a21.5,21.5,0,0,1,1.744,3.929c-.612.911-4.264,1.965-6.249,2.538-4.805,1.387-10.253,2.959-11.67,7.941a73.788,73.788,0,0,0-1.432,10.622c-.626,6.5-1.927,20.033-4.556,22.47-3.594,3.33-29.137,3.824-35.082,1.381-7.633-3.137-10.938-7.6-11.051-14.92a3.6,3.6,0,0,0-3.592-3.553h-.057a3.6,3.6,0,0,0-3.538,3.663c.235,15.206,11.735,19.934,15.515,21.486,2.932,1.206,10.46,2.068,18.487,2.068,9.817,0,20.38-1.291,24.193-4.825,4.3-3.987,5.594-14.175,6.836-27.078a77.967,77.967,0,0,1,1.189-9.334c.323-1.134,4.5-2.34,6.745-2.988,4.357-1.257,8.861-2.558,10.733-6.317C264.9,765.973,263.351,762.913,261.389,759.039Z" transform="translate(-104.262 -650.937)" fill="#FFFFFF"/>
  <path id="Path_53" data-name="Path 53" d="M151.343,899.373a27.822,27.822,0,0,0-5.445-5.245c1.664,4.754,3.207,9.222,4.355,13.684a51.69,51.69,0,0,1,1.873,13.112,31.5,31.5,0,0,1-2.494,12.459,60.419,60.419,0,0,1-7.323,11.967,27.056,27.056,0,0,0,3.479-1.5,24.913,24.913,0,0,0,3.232-2.052,25.175,25.175,0,0,0,5.509-5.579,26.107,26.107,0,0,0,4.782-15.279,33.376,33.376,0,0,0-3.809-15.174A37.093,37.093,0,0,0,151.343,899.373Z" transform="translate(-124.443 -779.963)" fill="#FFFFFF"/>
</svg>
