<svg id="master_icon" xmlns="http://www.w3.org/2000/svg" width="110" height="116" viewBox="0 0 110 116">
  <path id="Path_52" data-name="Path 52" d="M212.513,725.137c-2.036-4.006-5.827-11.461-7.592-28.054-2.722-25.6-23.966-39.462-31.921-42.644a51.44,51.44,0,0,0-20.374-3.475c-13.134.43-24.941,5.8-35.093,15.95a44.482,44.482,0,0,0-13.061,27.054,32.514,32.514,0,0,0,11.3,28.548,30.863,30.863,0,0,0,28.869,6.246c6.915-1.986,12.116-6.014,14.268-11.052a12.613,12.613,0,0,0,1.011-5.922,29.9,29.9,0,0,0,4.032.723,19.419,19.419,0,0,0,8.911-.943,13.868,13.868,0,0,0,4.075-2.4,14.392,14.392,0,0,0,2.994-3.592,18.433,18.433,0,0,0,1.783-4.116,25.8,25.8,0,0,0,.813-3.667l.265-.358c.2-.282.4-.565.581-.852q.558-.861,1.036-1.767a20.7,20.7,0,0,0,1.561-3.826,16.07,16.07,0,0,0,.648-4.191,13.549,13.549,0,0,0-.134-2.162c-.051-.36-.115-.717-.2-1.071s-.163-.66-.254-1a15.618,15.618,0,0,0-1.645-3.889,12.762,12.762,0,0,0-2.833-3.268,17.372,17.372,0,0,0-6.76-3.237q-.176-.276-.358-.539c-.262-.383-.542-.749-.826-1.112a21.06,21.06,0,0,0-1.861-2.045,16.952,16.952,0,0,0-4.592-3.2,13.822,13.822,0,0,0-5.535-1.31,15.46,15.46,0,0,0-4.861.712c-.156-.091-.311-.179-.473-.269q-.55-.3-1.113-.569a20.89,20.89,0,0,0-2.319-.939,15.3,15.3,0,0,0-5.033-.853,10.267,10.267,0,0,0-5.1,1.376,11.015,11.015,0,0,0-3.354,3.13c-.721.044-1.4.122-2.1.222a26.421,26.421,0,0,0-2.691.537,19,19,0,0,0-5.15,2.089,11.355,11.355,0,0,0-4.058,4.032,10.682,10.682,0,0,0-1.353,5.107,25.73,25.73,0,0,0-1.974,2.007,25.1,25.1,0,0,0-2,2.578,15.877,15.877,0,0,0-2.594,6.067,10.187,10.187,0,0,0-.023,3.394,9.719,9.719,0,0,0,1.141,3.193,14.4,14.4,0,0,0,4.256,4.493,13.453,13.453,0,0,0,.106,2.512,12.193,12.193,0,0,0,.718,2.813,9.843,9.843,0,0,0,1.442,2.547,8.979,8.979,0,0,0,2.179,1.962,9.933,9.933,0,0,0,2.648,1.182,13.265,13.265,0,0,0,2.813.5,18.633,18.633,0,0,0,5.625-.4,10.313,10.313,0,0,0,4.985-2.63,8.927,8.927,0,0,0,2.439-5.025,13.349,13.349,0,0,0-.31-5.209.239.239,0,0,0,.131,0c.03-.01,2.85-.93,7.13,1.3a1.469,1.469,0,0,0,.021.714,1.5,1.5,0,1,0,.159-1.179,13.968,13.968,0,0,0-3.607-1.313,9.031,9.031,0,0,1-1.09-3.342,11.335,11.335,0,0,1,1.582-7.169,1.91,1.91,0,1,0-.416-.268,11.829,11.829,0,0,0-1.654,7.527,9.837,9.837,0,0,0,.951,3.14,7.434,7.434,0,0,0-3.238.125.252.252,0,0,0-.081.048,13.566,13.566,0,0,0-.972-2.5,8.089,8.089,0,0,0-1.616-2.237,8.038,8.038,0,0,1,1.533,2.278,13.535,13.535,0,0,1,.9,2.6,13.19,13.19,0,0,1,.206,5.431,8.46,8.46,0,0,1-2.461,4.688,9.664,9.664,0,0,1-4.758,2.305,18.36,18.36,0,0,1-5.2.228l.516-4.651,4.313-3.69a1.471,1.471,0,0,0,.61.311,1.493,1.493,0,1,0-.935-.684l-3.908,3.344.792-7.137a1.463,1.463,0,1,0-.493-.05L132.5,710.847a12.334,12.334,0,0,1-2.3-.494,8.924,8.924,0,0,1-2.36-1.121,8.054,8.054,0,0,1-3.088-4.051,10.972,10.972,0,0,1-.583-2.551,11.94,11.94,0,0,1-.015-2.6.679.679,0,0,0-.275-.625,13.339,13.339,0,0,1-4.021-4.339,8.221,8.221,0,0,1-.807-5.581c.017-.088.042-.175.061-.262a.248.248,0,0,0,.089.057l3.959,1.425a1.514,1.514,0,1,0,.17-.465l-3.962-1.426a.24.24,0,0,0-.16,0,14.849,14.849,0,0,1,2.3-4.675,24.005,24.005,0,0,1,3.964-4.308,12.9,12.9,0,0,1,3.851.209l.956,4.573a1.471,1.471,0,0,0-.547.367,1.49,1.49,0,1,0,1.031-.472l-.909-4.347a14.3,14.3,0,0,1,8.3,6,1.478,1.478,0,1,0,.592-.34,1.459,1.459,0,0,0-.176.071,14.663,14.663,0,0,0-8.9-6.261.248.248,0,0,0-.2-.045h0a13.791,13.791,0,0,0-3.6-.281.985.985,0,0,0,.068-.331,8.809,8.809,0,0,1,1.2-4.495,8.407,8.407,0,0,1,1.877-2.143l13.079,7.409a1.48,1.48,0,0,0,1.668,1.969,1.489,1.489,0,1,0-1.423-2.4l-8.42-4.77a8.634,8.634,0,0,1,7.371-1.246,1.481,1.481,0,1,0,.159-.469,9.1,9.1,0,0,0-8,1.45l-4.012-2.273a11.046,11.046,0,0,1,1.091-.712,16.765,16.765,0,0,1,4.579-1.718,24.063,24.063,0,0,1,2.459-.427,21.751,21.751,0,0,1,2.452-.166,1.247,1.247,0,0,0,1.015-.535l.009-.014A8.783,8.783,0,0,1,144,665.663a7.616,7.616,0,0,1,3.831-.919,12.574,12.574,0,0,1,4.1.812,18,18,0,0,1,1.981.861c.323.163.64.336.951.517s.634.382.872.549a1.463,1.463,0,0,0,1.275.193l.032-.01a12.785,12.785,0,0,1,4.473-.648c.237.012.473.035.708.062l-6.45,6.73-.007-.006a1.509,1.509,0,1,0,.361.352l4.491-4.686a6.988,6.988,0,0,1,3.852,7.55,1.482,1.482,0,1,0,.927.15,1.463,1.463,0,0,0-.431-.142,7.586,7.586,0,0,0-3.992-7.93l1.85-1.93a10.7,10.7,0,0,1,2.958.975,13.718,13.718,0,0,1,3.65,2.689,17.741,17.741,0,0,1,1.519,1.754c.231.311.459.625.667.947.105.161.208.322.3.483s.2.342.255.447a1.676,1.676,0,0,0,1.075.858l.045.011a14.474,14.474,0,0,1,5.931,2.843,9.85,9.85,0,0,1,3.038,5.03,13.943,13.943,0,0,1-8.074-1.357,1.515,1.515,0,1,0-.28.42,15.041,15.041,0,0,0,4.11,1.356l-16.356,2.4a1.521,1.521,0,1,0,.069.49l7.058-1.035L167.29,689.2a1.521,1.521,0,1,0,.458.187l1.62-3.994,10.655-1.562c.155,0,.307.008.451.008a11.105,11.105,0,0,0,1.93-.155c.057.233.12.481.154.686.054.252.092.508.122.765a9.719,9.719,0,0,1,.057,1.558,12.152,12.152,0,0,1-.572,3.144,16.694,16.694,0,0,1-1.331,3.035c-.273.488-.57.966-.885,1.427-.157.231-.32.457-.486.676l-.25.321-.226.27-.016.019a2.194,2.194,0,0,0-.478,1.056,17.777,17.777,0,0,1-2.281,6.662,9.7,9.7,0,0,1-2.174,2.47l-2.344-7.528a1.512,1.512,0,1,0-.473.147l1.259,4.043-4.453-1.1a1.473,1.473,0,1,0-.116.482l4.74,1.174.965,3.1a9.177,9.177,0,0,1-2.322,1.2,14.844,14.844,0,0,1-6.783.5,25.272,25.272,0,0,1-3.549-.74c-.586-.166-1.169-.351-1.742-.554-.286-.1-.57-.208-.849-.318s-.579-.236-.771-.326l-.032-.014-.054-.024a2.464,2.464,0,0,0-.9-.2l-.033,0h-.052a2.469,2.469,0,0,0-2.393,3.614,7.4,7.4,0,0,1,.226,6.54c-1.565,3.662-5.6,6.665-11.081,8.238a25.984,25.984,0,0,1-24.3-5.266,27.573,27.573,0,0,1-9.583-24.209,39.645,39.645,0,0,1,11.642-24.109c20.828-20.832,43.633-13.976,50.126-11.379.259.1,25.915,11.1,28.836,38.57,1.861,17.5,5.921,25.486,8.1,29.775a14.733,14.733,0,0,1,1.2,2.7c-.422.625-2.938,1.349-4.305,1.742-3.311.952-7.064,2.031-8.04,5.451a50.468,50.468,0,0,0-.986,7.291c-.431,4.463-1.327,13.75-3.139,15.423-2.476,2.286-20.074,2.625-24.169.948-5.259-2.153-7.535-5.217-7.614-10.241a2.476,2.476,0,0,0-2.475-2.439h-.039a2.476,2.476,0,0,0-2.437,2.514c.162,10.437,8.085,13.682,10.689,14.748,2.02.827,7.206,1.42,12.737,1.42,6.763,0,14.041-.886,16.667-3.312,2.965-2.737,3.854-9.729,4.709-18.586a53.322,53.322,0,0,1,.819-6.407c.222-.779,3.1-1.606,4.647-2.051,3-.863,6.105-1.756,7.395-4.336C214.932,729.9,213.864,727.8,212.513,725.137Z" transform="translate(-104.262 -650.937)" fill="#07373b"/>
  <path id="Path_53" data-name="Path 53" d="M148.534,897.728a19.138,19.138,0,0,0-3.751-3.6c1.146,3.263,2.209,6.33,3,9.393a35.357,35.357,0,0,1,1.291,9,21.555,21.555,0,0,1-1.718,8.552,41.441,41.441,0,0,1-5.045,8.214,18.683,18.683,0,0,0,2.4-1.032,17.818,17.818,0,0,0,6.022-5.238,17.874,17.874,0,0,0,3.295-10.487,22.842,22.842,0,0,0-2.624-10.415A25.452,25.452,0,0,0,148.534,897.728Z" transform="translate(-130.001 -815.766)" fill="#07373b"/>
</svg>
