<svg xmlns="http://www.w3.org/2000/svg" width="262" height="157" viewBox="0 0 262 157"><defs><style>.a{fill:#07373b;}</style></defs><g transform="translate(0)"><g transform="translate(0 125.381)"><path class="a" d="M55.493,391.361a14.863,14.863,0,0,1,15.151-15.306,14.653,14.653,0,0,1,7.225,1.662c1.27.7,1.97,1.443,1.97,2.624a2.1,2.1,0,0,1-2.189,2.143,4.165,4.165,0,0,1-1.927-.613,11.066,11.066,0,0,0-4.9-1.137c-6.043,0-9.9,4.68-9.9,10.627,0,5.86,3.766,10.539,9.94,10.539a12.39,12.39,0,0,0,5.167-1.137,5.047,5.047,0,0,1,2.1-.744,2.114,2.114,0,0,1,2.189,2.187A2.631,2.631,0,0,1,79.1,404.35a14.088,14.088,0,0,1-8.232,2.318C61.8,406.668,55.493,400.2,55.493,391.361Z" transform="translate(-55.493 -375.049)"/><path class="a" d="M124.182,402.568V376.284a2.531,2.531,0,0,1,2.5-2.536,2.5,2.5,0,0,1,2.5,2.536v26.284a2.533,2.533,0,0,1-2.452,2.58A2.578,2.578,0,0,1,124.182,402.568Z" transform="translate(-94.188 -373.748)"/><path class="a" d="M151.046,380.558a2.847,2.847,0,1,1,2.846,2.8A2.775,2.775,0,0,1,151.046,380.558Zm.35,24.272V389.917a2.493,2.493,0,0,1,2.5-2.493,2.466,2.466,0,0,1,2.5,2.493V404.83a2.541,2.541,0,0,1-2.5,2.581A2.57,2.57,0,0,1,151.4,404.83Z" transform="translate(-109.321 -376.01)"/><path class="a" d="M208.849,406.216v10.715a2.5,2.5,0,1,1-4.992,0v-9.665c0-2.755-1.576-3.63-3.241-3.63a4.646,4.646,0,0,0-3.985,2.711v10.584a2.5,2.5,0,1,1-4.992,0v-9.709c0-2.711-1.576-3.586-3.2-3.586a4.6,4.6,0,0,0-4.029,2.8v10.5a2.541,2.541,0,0,1-2.5,2.58,2.57,2.57,0,0,1-2.5-2.58V402.062a2.531,2.531,0,0,1,2.5-2.536,2.5,2.5,0,0,1,2.5,2.536v.088a7,7,0,0,1,5.736-2.93,6.065,6.065,0,0,1,5.693,3.28,7.683,7.683,0,0,1,6.437-3.28C205.652,399.219,208.849,401.231,208.849,406.216Z" transform="translate(-125.307 -388.111)"/><path class="a" d="M276.566,405.835v11.283a2.387,2.387,0,1,1-4.773,0,9.442,9.442,0,0,1-6.262,2.668,5.519,5.519,0,0,1-5.867-5.467c0-2.755,1.664-4.417,4.467-5.423a36.948,36.948,0,0,1,7.663-1.312V406.36c0-1.924-1.182-2.711-3.5-2.711a8.264,8.264,0,0,0-3.372.7,6.016,6.016,0,0,1-1.532.393,2,2,0,0,1-2.1-2.012,2.232,2.232,0,0,1,1.314-2.012,15.069,15.069,0,0,1,6.305-1.4C273.633,399.319,276.566,401.681,276.566,405.835Zm-9.546,9.927a8.46,8.46,0,0,0,4.773-1.88v-3.149c-1.533.219-3.109.437-4.335.744-2.1.481-2.934,1.181-2.934,2.318C264.525,414.975,265.488,415.763,267.021,415.763Z" transform="translate(-170.509 -388.167)"/><path class="a" d="M325.544,412.8a2.253,2.253,0,0,1-1.533,2.012,10.153,10.153,0,0,1-4.773,1.093c-4.6,0-6.831-2.318-6.831-6.21v-9.534h-1.751a1.49,1.49,0,0,1-1.576-1.443,1.8,1.8,0,0,1,.788-1.4l4.6-3.936a2.106,2.106,0,0,1,1.489-.788c.745,0,1.445.525,1.445,1.75v1.574h5.692a2.121,2.121,0,1,1,0,4.242H317.4v8.7a2.338,2.338,0,0,0,2.54,2.58,5.867,5.867,0,0,0,2.189-.437,4.772,4.772,0,0,1,1.358-.35A2.048,2.048,0,0,1,325.544,412.8Z" transform="translate(-198.346 -384.378)"/><path class="a" d="M373.738,407.978a2.64,2.64,0,0,1-.569,1.837c-.482.569-1.226.7-2.365.7H359.769c.525,3.192,2.978,4.9,6.262,4.9a9.866,9.866,0,0,0,3.109-.569,6.549,6.549,0,0,1,1.576-.306,1.971,1.971,0,0,1,1.971,2.012,2.257,2.257,0,0,1-1.445,2.056,13.134,13.134,0,0,1-5.605,1.181c-6.13,0-10.772-4.067-10.772-10.277,0-5.86,4.16-10.19,9.984-10.19A8.517,8.517,0,0,1,373.738,407.978Zm-4.467-.656a4.212,4.212,0,0,0-4.51-4.111,4.773,4.773,0,0,0-4.861,4.111Z" transform="translate(-224.139 -388.167)"/><path class="a" d="M471.939,379.7v24.4a2.584,2.584,0,1,1-5.167,0v-18.28l-6.481,10.5a3.358,3.358,0,0,1-2.89,1.881,3.466,3.466,0,0,1-2.89-1.837l-6.437-10.321v18.061a2.579,2.579,0,0,1-2.627,2.624,2.533,2.533,0,0,1-2.54-2.624V379.748a3.067,3.067,0,0,1,3.021-3.192,3.546,3.546,0,0,1,3.328,2.055l8.276,13.863,8.188-13.863c.876-1.443,1.8-2.055,3.109-2.055A3.074,3.074,0,0,1,471.939,379.7Z" transform="translate(-273.736 -375.331)"/><path class="a" d="M526.808,380.558a2.847,2.847,0,1,1,2.846,2.8A2.775,2.775,0,0,1,526.808,380.558Zm.351,24.272V389.917a2.493,2.493,0,0,1,2.5-2.493,2.466,2.466,0,0,1,2.5,2.493V404.83a2.541,2.541,0,0,1-2.5,2.581A2.57,2.57,0,0,1,527.159,404.83Z" transform="translate(-321 -376.01)"/><path class="a" d="M573.182,406.36v10.627a2.563,2.563,0,0,1-2.452,2.58,2.607,2.607,0,0,1-2.54-2.58V407.41c0-2.318-1.27-3.761-3.5-3.761a5.155,5.155,0,0,0-4.51,3.061v10.277a2.57,2.57,0,0,1-2.5,2.58,2.541,2.541,0,0,1-2.5-2.58V402.074a2.466,2.466,0,0,1,2.5-2.493,2.493,2.493,0,0,1,2.5,2.493v.262a7.827,7.827,0,0,1,6.13-3.017A6.613,6.613,0,0,1,573.182,406.36Z" transform="translate(-336.986 -388.167)"/><path class="a" d="M629.79,402.656a2.456,2.456,0,0,1-2.452,2.493,2.429,2.429,0,0,1-2.452-2.493v-.131a7.486,7.486,0,0,1-5.737,2.843c-5.517,0-9.283-4.723-9.283-10.233,0-5.554,3.766-10.234,9.283-10.234a8.057,8.057,0,0,1,5.605,2.055V376.284a2.53,2.53,0,0,1,2.5-2.536,2.5,2.5,0,0,1,2.5,2.536Zm-5.036-4.242v-6.735a5.252,5.252,0,0,0-4.467-2.362c-2.846,0-5.3,2.362-5.3,5.817a5.463,5.463,0,0,0,5.3,5.772A5.277,5.277,0,0,0,624.754,398.414Z" transform="translate(-367.79 -373.748)"/></g><g transform="translate(78.379)"><path class="a" d="M306.99,197.071c-5.291,0-10.253-.566-12.186-1.356-2.491-1.018-10.072-4.118-10.226-14.09a2.366,2.366,0,0,1,2.332-2.4h.038a2.367,2.367,0,0,1,2.368,2.329c.075,4.8,2.253,7.727,7.284,9.784,3.918,1.6,20.755,1.279,23.124-.9,1.733-1.6,2.591-10.471,3-14.734a48.155,48.155,0,0,1,.944-6.966c.934-3.266,4.525-4.3,7.692-5.208,1.309-.375,3.716-1.067,4.12-1.664a14.092,14.092,0,0,0-1.15-2.577c-2.087-4.1-5.971-11.726-7.751-28.446-2.8-26.239-27.342-36.749-27.589-36.847-6.212-2.481-28.031-9.031-47.959,10.87a37.854,37.854,0,0,0-11.138,23.033,26.321,26.321,0,0,0,9.168,23.127,24.887,24.887,0,0,0,23.253,5.031c5.241-1.5,9.1-4.371,10.6-7.87a7.058,7.058,0,0,0-.216-6.248,2.368,2.368,0,0,1,4.195-2.2,11.8,11.8,0,0,1,.379,10.307c-2.06,4.813-7.036,8.662-13.652,10.559A29.559,29.559,0,0,1,246,154.632a31.039,31.039,0,0,1-10.816-27.273,42.474,42.474,0,0,1,12.5-25.846c9.713-9.7,21.009-14.827,33.575-15.237a49.282,49.282,0,0,1,19.493,3.32c7.612,3.041,27.936,16.287,30.54,40.74,1.689,15.853,5.316,22.975,7.264,26.8,1.293,2.54,2.315,4.547,1.191,6.791-1.234,2.465-4.2,3.318-7.075,4.143-1.479.425-4.233,1.215-4.446,1.959a50.756,50.756,0,0,0-.783,6.12c-.819,8.461-1.669,15.142-4.506,17.757C320.423,196.225,313.461,197.071,306.99,197.071Z" transform="translate(-234.986 -86.25)"/><g transform="translate(12.471 10.616)"><path class="a" d="M302.105,152.435c.183.085.483.211.738.311s.538.207.812.3c.548.194,1.106.371,1.666.529a24.215,24.215,0,0,0,3.4.707,14.222,14.222,0,0,0,6.49-.475,8.921,8.921,0,0,0,4.706-3.806,16.976,16.976,0,0,0,2.182-6.365,2.09,2.09,0,0,1,.457-1.009l.015-.018.215-.258.239-.307c.159-.209.315-.425.465-.646.3-.441.586-.9.848-1.363a15.941,15.941,0,0,0,1.273-2.9,11.58,11.58,0,0,0,.547-3,9.226,9.226,0,0,0-.054-1.488c-.029-.246-.065-.49-.117-.73s-.116-.526-.177-.778a9.555,9.555,0,0,0-3-5.143,13.855,13.855,0,0,0-5.675-2.716l-.043-.011a1.6,1.6,0,0,1-1.028-.819c-.052-.1-.156-.283-.244-.427s-.19-.308-.291-.461c-.2-.308-.418-.608-.639-.9a16.9,16.9,0,0,0-1.453-1.676,13.115,13.115,0,0,0-3.492-2.569,10.243,10.243,0,0,0-4.084-1.075,12.25,12.25,0,0,0-4.279.619l-.031.01a1.4,1.4,0,0,1-1.219-.184c-.227-.159-.546-.357-.834-.525s-.6-.338-.91-.493a17.322,17.322,0,0,0-1.9-.822,12.057,12.057,0,0,0-3.924-.776,7.3,7.3,0,0,0-3.665.878,8.4,8.4,0,0,0-2.813,2.653l-.009.013a1.2,1.2,0,0,1-.971.511,20.832,20.832,0,0,0-2.346.158,23.031,23.031,0,0,0-2.353.408,16.045,16.045,0,0,0-4.381,1.641,8.817,8.817,0,0,0-3.245,3.043,8.4,8.4,0,0,0-1.152,4.294.961.961,0,0,1-.342.72,22.946,22.946,0,0,0-3.9,4.213,13.557,13.557,0,0,0-2.354,5.106,7.844,7.844,0,0,0,.772,5.332,12.753,12.753,0,0,0,3.847,4.145.65.65,0,0,1,.263.6,11.355,11.355,0,0,0,.015,2.482,10.475,10.475,0,0,0,.558,2.437,7.694,7.694,0,0,0,2.954,3.87,8.556,8.556,0,0,0,2.258,1.072,11.822,11.822,0,0,0,2.5.508,17.73,17.73,0,0,0,5.147-.2,9.25,9.25,0,0,0,4.552-2.2,8.076,8.076,0,0,0,2.354-4.479,12.582,12.582,0,0,0-.2-5.188,12.9,12.9,0,0,0-.865-2.479,7.69,7.69,0,0,0-1.467-2.176,7.732,7.732,0,0,1,1.546,2.137,13.017,13.017,0,0,1,.957,2.474,12.845,12.845,0,0,1,.375,5.292,8.525,8.525,0,0,1-2.333,4.8,9.872,9.872,0,0,1-4.769,2.513,17.856,17.856,0,0,1-5.382.38,12.713,12.713,0,0,1-2.691-.48,9.488,9.488,0,0,1-2.533-1.129A8.578,8.578,0,0,1,271,154.631a9.4,9.4,0,0,1-1.38-2.434,11.628,11.628,0,0,1-.687-2.688,12.47,12.47,0,0,1-.079-2.792l.263.6a14.068,14.068,0,0,1-4.357-4.5,9.273,9.273,0,0,1-1.092-3.05,9.71,9.71,0,0,1,.021-3.242,15.162,15.162,0,0,1,2.482-5.8,23.975,23.975,0,0,1,1.911-2.462,23.61,23.61,0,0,1,2.223-2.219l-.341.719a10.327,10.327,0,0,1,1.3-5.3,10.856,10.856,0,0,1,3.882-3.852,18.2,18.2,0,0,1,4.928-2,25.311,25.311,0,0,1,2.575-.512,22.732,22.732,0,0,1,2.651-.241l-.98.524a10.8,10.8,0,0,1,3.548-3.485,9.833,9.833,0,0,1,4.882-1.314,14.658,14.658,0,0,1,4.816.814,19.961,19.961,0,0,1,2.219.9q.54.256,1.065.544c.359.2.679.382,1.069.638l-1.251-.174a15.109,15.109,0,0,1,5.285-.888,13.24,13.24,0,0,1,5.3,1.251,16.207,16.207,0,0,1,4.394,3.056,20.2,20.2,0,0,1,1.781,1.953c.272.346.539.7.79,1.062.126.183.25.368.372.558s.23.364.372.621l-1.071-.83a17.162,17.162,0,0,1,7.138,3.259,12.192,12.192,0,0,1,2.711,3.122,14.888,14.888,0,0,1,1.574,3.716c.087.322.17.6.242.953s.141.679.19,1.023a12.914,12.914,0,0,1,.128,2.065,15.325,15.325,0,0,1-.62,4,19.763,19.763,0,0,1-1.493,3.655q-.457.867-.991,1.688c-.177.275-.362.545-.556.815l-.3.4c-.109.141-.2.255-.347.433l.472-1.027a25.213,25.213,0,0,1-.858,4.035,17.6,17.6,0,0,1-1.706,3.932,13.752,13.752,0,0,1-2.864,3.432,13.269,13.269,0,0,1-3.9,2.293,18.6,18.6,0,0,1-8.526.9,28.777,28.777,0,0,1-4.068-.741q-1-.254-1.973-.573-.489-.159-.978-.338c-.338-.126-.628-.234-1.024-.405a2.367,2.367,0,1,1,1.88-4.345l.052.023Z" transform="translate(-263.545 -110.592)"/></g><g transform="translate(27.732 20.577)"><path class="a" d="M298.732,135.684a.236.236,0,0,1-.16-.411,8.782,8.782,0,0,1,9.125-1.032.237.237,0,0,1-.185.436,8.307,8.307,0,0,0-8.622.946A.236.236,0,0,1,298.732,135.684Z" transform="translate(-298.495 -133.434)"/></g><g transform="translate(39.236 44.793)"><path class="a" d="M332.669,191.209a.239.239,0,0,1-.118-.031c-4.417-2.527-7.366-1.556-7.4-1.546a.237.237,0,1,1-.155-.447c.128-.044,3.185-1.05,7.786,1.583a.237.237,0,0,1-.117.442Z" transform="translate(-324.84 -188.959)"/></g><g transform="translate(59.355 47.804)"><path class="a" d="M377.177,197.828a.236.236,0,0,1-.057-.007l-6.026-1.491a.237.237,0,1,1,.114-.459l6.026,1.491a.237.237,0,0,1-.057.466Z" transform="translate(-370.914 -195.865)"/></g><g transform="translate(63.635 43.695)"><path class="a" d="M384,196.69a.237.237,0,0,1-.226-.166l-3.048-9.775a.237.237,0,0,1,.452-.141l3.049,9.775a.236.236,0,0,1-.156.3A.232.232,0,0,1,384,196.69Z" transform="translate(-380.714 -186.442)"/></g><g transform="translate(62.447 42.509)"><ellipse class="a" cx="1.424" cy="1.422" rx="1.424" ry="1.422"/></g><g transform="translate(26.966 43.684)"><path class="a" d="M296.977,200.687h-.026a.236.236,0,0,1-.21-.261l1.533-13.8a.237.237,0,0,1,.471.052l-1.533,13.8A.237.237,0,0,1,296.977,200.687Z" transform="translate(-296.74 -186.418)"/></g><g transform="translate(27.311 42.498)"><ellipse class="a" cx="1.424" cy="1.422" rx="1.424" ry="1.422"/></g><g transform="translate(35.418 20.18)"><ellipse class="a" cx="1.424" cy="1.422" rx="1.424" ry="1.422"/></g><g transform="translate(46.336 45.568)"><ellipse class="a" cx="1.424" cy="1.422" rx="1.424" ry="1.422"/></g><g transform="translate(19.324 27.086)"><path class="a" d="M293.316,156.207a.237.237,0,0,1-.2-.116c-2.757-4.634-6.3-6.321-8.785-6.92a11.692,11.692,0,0,0-4.8-.193.237.237,0,0,1-.1-.462c.086-.02,8.639-1.836,14.094,7.333a.237.237,0,0,1-.2.358Z" transform="translate(-279.241 -148.358)"/></g><g transform="translate(31.976 33.276)"><ellipse class="a" cx="1.424" cy="1.422" rx="1.424" ry="1.422"/></g><g transform="translate(41.497 33.42)"><path class="a" d="M331.463,174.908a.237.237,0,0,1-.2-.105,8.7,8.7,0,0,1-1.162-3.444,11.7,11.7,0,0,1,2.337-8.377.237.237,0,0,1,.388.272,11.237,11.237,0,0,0-2.258,8.019,8.384,8.384,0,0,0,1.089,3.268.236.236,0,0,1-.2.368Z" transform="translate(-330.018 -162.881)"/></g><g transform="translate(42.691 32.234)"><ellipse class="a" cx="1.424" cy="1.422" rx="1.424" ry="1.422"/></g><g transform="translate(65.959 29.195)"><path class="a" d="M392.994,155.434a14.2,14.2,0,0,1-6.833-1.8.237.237,0,1,1,.228-.415,13.184,13.184,0,0,0,8.522,1.565.237.237,0,1,1,.107.461A9.708,9.708,0,0,1,392.994,155.434Z" transform="translate(-386.038 -153.195)"/></g><g transform="translate(64.191 27.536)"><ellipse class="a" cx="1.424" cy="1.422" rx="1.424" ry="1.422"/></g><g transform="translate(53.631 17.184)"><path class="a" d="M361.93,134.277a.224.224,0,0,1-.041,0A.236.236,0,0,1,361.7,134c1.046-5.942-3.544-7.812-3.74-7.888a.237.237,0,1,1,.172-.441c.051.02,5.15,2.079,4.034,8.411A.236.236,0,0,1,361.93,134.277Z" transform="translate(-357.805 -125.654)"/></g><g transform="translate(56.407 24.894)"><ellipse class="a" cx="1.424" cy="1.422" rx="1.424" ry="1.422"/></g><g transform="translate(58.168 46.618)"><ellipse class="a" cx="1.424" cy="1.422" rx="1.424" ry="1.422"/></g><g transform="translate(27.521 47.992)"><path class="a" d="M298.248,201.262a.237.237,0,0,1-.154-.417l5.26-4.494a.237.237,0,1,1,.308.359l-5.261,4.494A.236.236,0,0,1,298.248,201.262Z" transform="translate(-298.011 -196.295)"/></g><g transform="translate(31.594 46.806)"><ellipse class="a" cx="1.424" cy="1.422" rx="1.424" ry="1.422"/></g><g transform="translate(22.495 19.392)"><path class="a" d="M301.554,139.57a.239.239,0,0,1-.117-.031l-14.816-8.381a.237.237,0,0,1,.233-.412l14.816,8.381a.236.236,0,0,1-.117.442Z" transform="translate(-286.502 -130.715)"/></g><g transform="translate(36.123 26.587)"><ellipse class="a" cx="1.424" cy="1.422" rx="1.424" ry="1.422"/></g><g transform="translate(53.34 30.955)"><path class="a" d="M357.375,160.467a.236.236,0,0,1-.034-.471l18.878-2.765a.236.236,0,1,1,.068.468l-18.877,2.764Z" transform="translate(-357.138 -157.229)"/></g><g transform="translate(52.153 32.534)"><ellipse class="a" cx="1.424" cy="1.422" rx="1.424" ry="1.422"/></g><g transform="translate(48.252 13.941)"><path class="a" d="M345.724,127.538a.237.237,0,0,1-.171-.4l8.492-8.847a.237.237,0,0,1,.343.328l-8.492,8.847A.238.238,0,0,1,345.724,127.538Z" transform="translate(-345.487 -118.218)"/></g><g transform="translate(47.065 21.602)"><ellipse class="a" cx="1.424" cy="1.422" rx="1.424" ry="1.422"/></g><g transform="translate(14.142 36.173)"><path class="a" d="M272.717,171.5a.234.234,0,0,1-.08-.014l-5.108-1.836a.237.237,0,1,1,.16-.445l5.108,1.836a.237.237,0,0,1-.08.459Z" transform="translate(-267.372 -169.196)"/></g><g transform="translate(18.063 36.823)"><ellipse class="a" cx="1.424" cy="1.422" rx="1.424" ry="1.422"/></g><g transform="translate(59.758 32.468)"><path class="a" d="M372.074,166.407a.237.237,0,0,1-.22-.325l2.127-5.235a.237.237,0,0,1,.439.178l-2.127,5.235A.236.236,0,0,1,372.074,166.407Z" transform="translate(-371.837 -160.698)"/></g><g transform="translate(58.571 36.517)"><ellipse class="a" cx="1.424" cy="1.422" rx="1.424" ry="1.422"/></g><g transform="translate(23.949 27.369)"><path class="a" d="M291.3,155.37a.236.236,0,0,1-.231-.188l-1.234-5.889a.237.237,0,0,1,.463-.1l1.234,5.889a.236.236,0,0,1-.183.28A.241.241,0,0,1,291.3,155.37Z" transform="translate(-289.832 -149.008)"/></g><g transform="translate(23.995 32.072)"><ellipse class="a" cx="1.424" cy="1.422" rx="1.424" ry="1.422"/></g><g transform="translate(11.778 74.862)"><path class="a" d="M264.323,257.909a18.27,18.27,0,0,1,3.589,3.44,24.307,24.307,0,0,1,2.742,4.19,21.8,21.8,0,0,1,2.511,9.95,17.058,17.058,0,0,1-3.152,10.019,16.549,16.549,0,0,1-3.631,3.659,16.368,16.368,0,0,1-2.131,1.345,17.847,17.847,0,0,1-2.293.986,39.6,39.6,0,0,0,4.826-7.847,20.564,20.564,0,0,0,1.644-8.17,33.745,33.745,0,0,0-1.234-8.6C266.436,263.957,265.419,261.027,264.323,257.909Z" transform="translate(-261.958 -257.909)"/></g></g></g></svg>