<?xml version="1.0" encoding="utf-8"?>
<!-- Generator: Adobe Illustrator 24.1.2, SVG Export Plug-In . SVG Version: 6.00 Build 0)  -->
<svg version="1.1" id="Layer_1" xmlns="http://www.w3.org/2000/svg" xmlns:xlink="http://www.w3.org/1999/xlink" x="0px" y="0px"
	 viewBox="0 0 841.89 595.28" style="enable-background:new 0 0 841.89 595.28;" xml:space="preserve">
<style type="text/css">
	.st0{fill:#66BB91;}
	.st1{fill:#2A9F99;}
	.st2{fill:#FFFFFF;}
	.st3{fill:#07383C;}
	.st4{fill:#017AA2;}
	.st5{fill:#020203;}
	.st6{fill:#CDEAF8;}
	.st7{fill:none;stroke:#CDEAF8;}
</style>
<g>
	<g>
		<path class="st3" d="M580.38,345.14c-5.97-11.75-17.09-33.61-22.27-82.26c-7.98-75.06-70.29-115.72-93.62-125.05
			c-10.48-4.19-32.19-11.08-59.76-10.19c-38.52,1.26-73.15,16.99-102.93,46.77c-21.94,21.94-34.83,48.63-38.31,79.33
			c-3.61,31.81,8.79,63.1,33.16,83.71c23.91,20.22,54.77,26.9,84.67,18.31c20.28-5.82,35.53-17.63,41.85-32.41
			c2.42-5.67,3.4-11.57,2.97-17.36c3.86,0.96,7.8,1.69,11.82,2.12c8.45,0.88,17.48,0.5,26.14-2.76c4.29-1.63,8.41-4.01,11.95-7.04
			c3.54-3.04,6.49-6.66,8.78-10.53c2.3-3.87,3.99-7.96,5.23-12.07c1.09-3.57,1.84-7.17,2.38-10.75l0.78-1.05
			c0.59-0.83,1.16-1.66,1.71-2.5c1.09-1.68,2.1-3.41,3.04-5.18c1.87-3.54,3.42-7.29,4.58-11.22c1.13-3.94,1.84-8.07,1.9-12.29
			c0.06-2.11-0.11-4.23-0.39-6.34c-0.15-1.05-0.34-2.1-0.58-3.14c-0.22-1.08-0.48-1.94-0.74-2.93c-1.08-3.84-2.61-7.78-4.82-11.4
			c-2.19-3.64-5.05-6.92-8.31-9.58c-5.98-4.88-12.93-7.71-19.83-9.49c-0.34-0.54-0.69-1.06-1.05-1.58c-0.77-1.12-1.59-2.2-2.42-3.26
			c-1.69-2.11-3.5-4.11-5.46-5.99c-3.92-3.74-8.4-7.05-13.47-9.38c-5.04-2.38-10.64-3.71-16.23-3.84c-4.89-0.11-9.72,0.7-14.26,2.09
			c-0.46-0.27-0.91-0.52-1.39-0.79c-1.08-0.59-2.16-1.15-3.26-1.67c-2.2-1.05-4.47-1.97-6.8-2.75c-4.66-1.55-9.62-2.56-14.76-2.5
			c-5.12,0.06-10.44,1.33-14.97,4.03c-4,2.33-7.27,5.6-9.84,9.18c-2.11,0.13-4.1,0.36-6.16,0.65c-2.65,0.39-5.28,0.91-7.89,1.57
			c-5.21,1.34-10.36,3.25-15.11,6.13c-4.73,2.85-9.06,6.81-11.9,11.82c-2.66,4.6-3.85,9.87-3.97,14.98
			c-2.09,1.89-3.95,3.82-5.79,5.89c-2.1,2.39-4.07,4.9-5.86,7.56c-3.55,5.3-6.47,11.25-7.61,17.79c-0.56,3.26-0.61,6.65-0.07,9.95
			c0.54,3.31,1.73,6.49,3.35,9.36c3.1,5.44,7.62,9.7,12.48,13.18c-0.14,2.53-0.01,4.92,0.31,7.37c0.39,2.81,1.05,5.59,2.11,8.25
			c1.04,2.66,2.44,5.21,4.23,7.47c1.8,2.26,3.98,4.21,6.39,5.75c2.41,1.56,5.06,2.68,7.77,3.47c2.71,0.79,5.48,1.28,8.25,1.47
			c5.54,0.41,11.08,0.1,16.5-1.17c5.38-1.27,10.65-3.72,14.62-7.71c3.99-3.97,6.35-9.31,7.15-14.73c0.76-5.12,0.34-10.32-0.91-15.27
			c0.13,0.03,0.26,0.03,0.38-0.01c0.09-0.03,8.36-2.73,20.91,3.8c-0.14,0.67-0.14,1.39,0.06,2.09c0.67,2.32,3.09,3.65,5.4,2.99
			s3.65-3.09,2.99-5.4c-0.67-2.32-3.09-3.65-5.4-2.99c-1.1,0.32-1.97,1.04-2.52,1.95c-3.99-2.06-7.54-3.23-10.58-3.85
			c-0.54-0.91-2.5-4.48-3.2-9.8c-0.65-4.99-0.26-12.45,4.64-21.02c1.5,0.63,3.29,0.41,4.58-0.74c1.81-1.6,1.97-4.36,0.37-6.16
			c-1.6-1.81-4.36-1.97-6.16-0.37c-1.81,1.6-1.97,4.36-0.37,6.16c0.11,0.12,0.24,0.22,0.36,0.33c-5.15,8.97-5.55,16.82-4.85,22.07
			c0.58,4.33,1.93,7.52,2.79,9.21c-5.78-0.84-9.26,0.29-9.49,0.37c-0.09,0.03-0.17,0.08-0.24,0.14c-0.72-2.52-1.65-4.99-2.85-7.32
			c-1.25-2.4-2.75-4.71-4.74-6.56c1.92,1.91,3.34,4.26,4.5,6.68c1.15,2.44,2.02,5,2.65,7.61c1.25,5.22,1.57,10.69,0.61,15.93
			c-0.95,5.22-3.38,10.18-7.22,13.75c-3.82,3.59-8.81,5.73-13.95,6.76c-4.99,1-10.19,1.11-15.26,0.67l1.51-13.64l12.65-10.82
			c0.51,0.42,1.1,0.75,1.79,0.91c2.35,0.55,4.7-0.91,5.25-3.25c0.55-2.35-0.91-4.7-3.25-5.25c-2.35-0.55-4.7,0.91-5.25,3.25
			c-0.27,1.15-0.05,2.3,0.51,3.24l-11.46,9.8l2.32-20.93c0.93-0.05,1.84-0.38,2.6-1.03c1.83-1.57,2.03-4.33,0.46-6.16
			c-1.57-1.83-4.33-2.03-6.16-0.46c-1.83,1.57-2.03,4.33-0.46,6.16c0.58,0.67,1.32,1.12,2.11,1.35l-4.07,36.67
			c-2.3-0.27-4.56-0.75-6.73-1.45c-2.46-0.78-4.83-1.85-6.92-3.29c-4.24-2.82-7.36-7.07-9.06-11.88c-0.88-2.39-1.42-4.92-1.71-7.48
			c-0.28-2.53-0.32-5.23-0.04-7.62c0.08-0.69-0.21-1.4-0.81-1.83c-4.8-3.49-9.1-7.69-11.79-12.72c-2.72-5.01-3.5-10.8-2.37-16.37
			c0.05-0.26,0.12-0.51,0.18-0.77c0.07,0.07,0.16,0.13,0.26,0.17l11.61,4.18c-0.15,0.85-0.06,1.75,0.32,2.59
			c1,2.19,3.59,3.16,5.79,2.16c2.19-1,3.16-3.59,2.16-5.79c-1-2.19-3.59-3.16-5.79-2.16c-0.87,0.4-1.54,1.06-1.98,1.83l-11.62-4.18
			c-0.16-0.06-0.32-0.04-0.47,0.01c1.3-4.86,3.76-9.48,6.75-13.71c3.31-4.64,7.36-9.01,11.63-12.63c2.33-0.24,6.42-0.39,11.29,0.61
			l2.81,13.41c-0.59,0.23-1.14,0.58-1.61,1.08c-1.64,1.76-1.55,4.53,0.22,6.17c1.76,1.64,4.53,1.55,6.17-0.22
			c1.64-1.76,1.55-4.53-0.22-6.17c-0.89-0.83-2.02-1.21-3.15-1.17l-2.67-12.75c6.92,1.72,16.4,6.21,24.36,17.6
			c-1.18,1.09-1.72,2.77-1.25,4.41c0.67,2.32,3.09,3.65,5.4,2.99c2.32-0.67,3.65-3.09,2.99-5.4c-0.67-2.32-3.09-3.65-5.4-2.99
			c-0.18,0.05-0.35,0.13-0.51,0.21c-8.19-11.76-18.08-16.55-26.09-18.36c-0.16-0.12-0.37-0.18-0.58-0.13c0,0,0,0,0,0
			c-4.31-0.91-8.02-0.97-10.57-0.82c0.11-0.31,0.19-0.63,0.2-0.97c0.06-4.72,1.16-9.31,3.53-13.18c1.43-2.39,3.32-4.48,5.51-6.29
			l38.36,21.73c-0.26,0.71-0.35,1.49-0.2,2.28c0.44,2.37,2.72,3.93,5.09,3.49c2.37-0.44,3.93-2.72,3.49-5.09s-2.72-3.93-5.09-3.49
			c-1.06,0.2-1.94,0.77-2.57,1.55l-24.69-13.99c2.48-1.81,10.49-6.68,21.62-3.65c-0.2,1.21,0.09,2.5,0.94,3.52
			c1.55,1.85,4.3,2.1,6.15,0.55c1.85-1.55,2.1-4.3,0.55-6.15c-1.55-1.85-4.3-2.1-6.15-0.55c-0.43,0.36-0.77,0.79-1.02,1.26
			c-12.62-3.47-21.5,2.71-23.46,4.25l-11.77-6.66c1.02-0.75,2.09-1.45,3.2-2.09c4.09-2.34,8.69-3.95,13.43-5.04
			c2.37-0.54,4.79-0.96,7.21-1.25c2.39-0.29,4.95-0.48,7.19-0.49c1.14-0.01,2.28-0.56,2.98-1.57l0.03-0.04
			c2.34-3.4,5.23-6.28,8.62-8.14c3.38-1.89,7.25-2.74,11.24-2.7c3.99,0.05,8.08,0.95,12.03,2.38c1.97,0.72,3.92,1.57,5.81,2.52
			c0.95,0.48,1.88,0.99,2.79,1.51c0.88,0.51,1.86,1.12,2.56,1.61c1.05,0.72,2.43,0.98,3.74,0.57l0.1-0.03
			c4.32-1.38,8.76-2.1,13.12-1.9c0.7,0.04,1.39,0.1,2.08,0.18l-18.92,19.73c-0.01-0.01-0.01-0.01-0.02-0.02
			c-2-1.34-4.71-0.81-6.06,1.19c-1.34,2-0.81,4.71,1.19,6.06c2,1.34,4.71,0.81,6.06-1.19c1.06-1.58,0.94-3.58-0.13-5.03l13.17-13.74
			c2.36,1.08,13.08,6.88,11.3,22.14c-1.31,0.21-2.51,0.99-3.18,2.25c-1.13,2.13-0.32,4.77,1.81,5.9s4.77,0.32,5.9-1.81
			c1.13-2.13,0.32-4.77-1.81-5.9c-0.41-0.22-0.83-0.34-1.26-0.42c1.67-15.09-8.49-21.59-11.71-23.25l5.42-5.66
			c3,0.53,5.92,1.48,8.68,2.86c3.94,1.92,7.52,4.69,10.7,7.89c1.59,1.61,3.08,3.33,4.46,5.14c0.68,0.91,1.35,1.83,1.96,2.78
			c0.31,0.47,0.61,0.94,0.89,1.42c0.27,0.44,0.59,1,0.75,1.31c0.62,1.2,1.74,2.16,3.15,2.52l0.13,0.03
			c6.56,1.66,12.73,4.3,17.4,8.34c4.45,3.8,7.28,8.82,8.91,14.75c-2.5,0.41-12.45,1.52-23.68-3.98c0.41-0.93,0.52-1.99,0.2-3.04
			c-0.71-2.3-3.15-3.6-5.46-2.89c-2.3,0.71-3.6,3.15-2.89,5.46c0.71,2.3,3.15,3.6,5.46,2.89c0.75-0.23,1.37-0.65,1.87-1.18
			c4.33,2.15,8.44,3.35,12.06,3.98l-47.97,7.03c-0.24-0.75-0.68-1.45-1.33-2c-1.84-1.55-4.6-1.32-6.15,0.53
			c-1.55,1.84-1.32,4.6,0.53,6.15c1.84,1.55,4.6,1.32,6.15-0.53c0.67-0.79,0.98-1.75,1.01-2.72l20.7-3.03l-4.43,10.92
			c-1.01-0.22-2.1-0.11-3.07,0.44c-2.1,1.18-2.85,3.84-1.67,5.94c1.18,2.1,3.84,2.85,5.94,1.67c2.1-1.18,2.85-3.84,1.67-5.94
			c-0.38-0.67-0.91-1.19-1.52-1.56l4.75-11.71l31.25-4.58c0.45,0.01,0.9,0.02,1.32,0.02c2.75,0,4.75-0.29,5.66-0.45
			c0.17,0.68,0.35,1.41,0.45,2.01c0.16,0.74,0.27,1.49,0.36,2.24c0.16,1.51,0.25,3.03,0.17,4.57c-0.12,3.07-0.73,6.17-1.68,9.22
			c-0.98,3.04-2.3,6.04-3.9,8.9c-0.8,1.43-1.67,2.83-2.6,4.18c-0.46,0.68-0.94,1.34-1.43,1.98l-0.73,0.94l-0.66,0.79l-0.05,0.05
			c-0.71,0.86-1.21,1.92-1.4,3.1c-1.14,7.11-3.18,13.99-6.69,19.54c-1.76,2.84-3.91,5.27-6.38,7.24l-6.88-22.08
			c1.02-0.52,1.84-1.43,2.21-2.61c0.7-2.31-0.6-4.75-2.9-5.45c-2.31-0.7-4.75,0.6-5.45,2.9c-0.7,2.31,0.6,4.75,2.9,5.45
			c0.62,0.19,1.25,0.22,1.86,0.14l3.69,11.86l-13.06-3.23c0.07-0.94-0.14-1.91-0.71-2.75c-1.34-2-4.05-2.54-6.06-1.2
			c-2,1.34-2.54,4.05-1.2,6.06s4.05,2.54,6.06,1.2c0.72-0.48,1.25-1.15,1.57-1.89l13.9,3.44l2.83,9.08
			c-2.08,1.48-4.35,2.67-6.81,3.52c-6.01,2.12-12.96,2.37-19.9,1.46c-3.48-0.46-6.97-1.2-10.41-2.17c-1.72-0.49-3.43-1.03-5.11-1.63
			c-0.84-0.3-1.67-0.61-2.49-0.93c-0.78-0.31-1.7-0.69-2.26-0.95l-0.09-0.04c-0.05-0.02-0.11-0.05-0.16-0.07
			c-0.87-0.37-1.76-0.55-2.65-0.58c-0.03,0-0.05-0.01-0.08-0.01c-0.06,0-0.12,0-0.18,0c-1.32-0.11-2.69,0.13-3.95,0.79
			c-3.55,1.86-4.92,6.25-3.05,9.81c3.19,6.09,3.42,12.72,0.66,19.18c-4.59,10.74-16.44,19.54-32.5,24.16
			c-25.16,7.22-51.14,1.59-71.28-15.44c-20.66-17.47-31.16-44.01-28.11-70.99c3.1-27.36,14.59-51.14,34.14-70.7
			c61.09-61.09,127.97-40.98,147.02-33.37c0.76,0.3,76.01,32.56,84.58,113.1c5.46,51.32,17.37,74.73,23.76,87.31
			c1.58,3.1,3.36,6.6,3.52,7.91c-1.24,1.83-8.62,3.96-12.63,5.11c-9.71,2.79-20.72,5.96-23.58,15.98
			c-1.25,4.38-1.98,11.88-2.89,21.38c-1.26,13.09-3.89,40.33-9.21,45.23c-7.26,6.7-58.88,7.7-70.89,2.78
			c-15.42-6.32-22.1-15.3-22.33-30.03c-0.06-4.01-3.34-7.26-7.37-7.15c-4.01,0.06-7.21,3.36-7.15,7.37
			c0.48,30.6,23.71,40.12,31.35,43.25c5.92,2.43,21.13,4.16,37.35,4.16c19.84,0,41.18-2.6,48.89-9.71
			c8.69-8.03,11.3-28.53,13.81-54.51c0.78-8.06,1.51-15.68,2.4-18.78c0.65-2.28,9.09-4.71,13.63-6.01
			c8.8-2.53,17.91-5.15,21.69-12.72C587.47,359.1,584.34,352.94,580.38,345.14z"/>
		<path class="st3" d="M317.24,367.9c-3.25-3.93-6.78-7.62-11-10.56c3.36,9.57,6.48,18.56,8.8,27.54
			c2.36,8.94,3.79,17.79,3.79,26.39c0.05,8.62-1.63,16.94-5.04,25.08c-3.42,8.16-8.76,15.86-14.8,24.09
			c2.36-0.89,4.79-1.8,7.03-3.03c2.21-1.26,4.5-2.51,6.53-4.13c4.26-3.01,7.91-6.92,11.13-11.23c6.29-8.74,9.8-19.89,9.66-30.75
			c-0.01-10.89-2.96-21.37-7.7-30.54C323.26,376.17,320.47,371.85,317.24,367.9z"/>
	</g>
</g>
</svg>
