<svg xmlns="http://www.w3.org/2000/svg" width="80.005" height="78.999" viewBox="0 0 80.005 78.999">
  <g id="Group_1130" data-name="Group 1130" transform="translate(690 -7051)">
    <g id="school_black_24dp" transform="translate(-690 7051)">
      <path id="Path_444" data-name="Path 444" d="M0,0H53.593V53.593H0Z" fill="none"/>
      <path id="Path_445" data-name="Path 445" d="M25.954,3,1,17.18l9.074,5.152v14.18l15.88,9.028,15.88-9.028V22.332l4.537-2.576V36.087h4.537V17.18ZM41.426,17.18,25.954,25.972,10.483,17.18,25.954,8.388ZM37.3,33.7,25.954,40.152,14.611,33.7V24.908L25.954,31.36,37.3,24.908Z" transform="translate(0.842 2.526)" fill="#ff6262"/>
    </g>
    <path id="Icon_material-send" data-name="Icon material-send" d="M0,29.265,34.052,14.581.04,0,.007,11.381,24.323,14.6,0,17.884Z" transform="matrix(0.914, -0.407, 0.407, 0.914, -653.006, 7103.263)" fill="#ff6262"/>
  </g>
</svg>
