<svg xmlns="http://www.w3.org/2000/svg" width="80" height="95.926" viewBox="0 0 80 95.926">
  <g id="Group_1129" data-name="Group 1129" transform="translate(481 -6232)">
    <g id="share_black_24dp" transform="translate(-452.481 6281.259)">
      <path id="Path_442" data-name="Path 442" d="M0,0H46.667V46.667H0Z" fill="none"/>
      <path id="Path_443" data-name="Path 443" d="M40.037,33.917a7.552,7.552,0,0,0-4.84,1.745l-17.6-9.407a6.847,6.847,0,0,0,.222-1.587,6.847,6.847,0,0,0-.222-1.587L35,13.765A7.741,7.741,0,0,0,40.037,15.6c4.1,0,7.407-3.038,7.407-6.8S44.136,2,40.037,2,32.63,5.038,32.63,8.8a6.847,6.847,0,0,0,.222,1.587L15.444,19.7a7.741,7.741,0,0,0-5.037-1.836c-4.1,0-7.407,3.038-7.407,6.8s3.309,6.8,7.407,6.8a7.741,7.741,0,0,0,5.037-1.836l17.58,9.43a5.9,5.9,0,0,0-.2,1.473c0,3.65,3.235,6.619,7.21,6.619s7.21-2.97,7.21-6.619-3.235-6.619-7.21-6.619Zm0-27.383A2.381,2.381,0,0,1,42.506,8.8a2.478,2.478,0,0,1-4.938,0A2.381,2.381,0,0,1,40.037,6.534Zm-29.63,20.4a2.275,2.275,0,1,1,0-4.534,2.275,2.275,0,1,1,0,4.534Zm29.63,15.913a2.275,2.275,0,1,1,2.469-2.267A2.381,2.381,0,0,1,40.037,42.849Z" transform="translate(-1.889 -1.259)" fill="#7884dd"/>
    </g>
    <g id="Group_1128" data-name="Group 1128" transform="translate(-481 6232)">
      <g id="favorite_border_black_24dp" transform="translate(0 25.936)">
        <path id="Path_438" data-name="Path 438" d="M0,0H46.657V46.657H0Z" fill="none"/>
        <path id="Path_439" data-name="Path 439" d="M30.188,3A11.642,11.642,0,0,0,21.44,7.063,11.642,11.642,0,0,0,12.692,3,10.588,10.588,0,0,0,2,13.692c0,7.348,6.61,13.336,16.621,22.434l2.819,2.547,2.819-2.566c10.012-9.079,16.621-15.066,16.621-22.415A10.588,10.588,0,0,0,30.188,3ZM21.635,33.23l-.194.194-.194-.194C11.992,24.851,5.888,19.31,5.888,13.692a6.644,6.644,0,0,1,6.8-6.8,7.6,7.6,0,0,1,6.94,4.588h3.635a7.552,7.552,0,0,1,6.921-4.588,6.644,6.644,0,0,1,6.8,6.8C36.992,19.31,30.888,24.851,21.635,33.23Z" transform="translate(1.888 2.832)" fill="#7884dd"/>
      </g>
      <g id="psychology_black_24dp" transform="translate(33.333 0)">
        <g id="Group_1123" data-name="Group 1123" transform="translate(0 0)">
          <rect id="Rectangle_216" data-name="Rectangle 216" width="46.667" height="46.667" fill="none"/>
        </g>
        <g id="Group_1125" data-name="Group 1125" transform="translate(7.947 5.842)">
          <g id="Group_1124" data-name="Group 1124">
            <path id="Path_440" data-name="Path 440" d="M22.152,8.372l-1.944.778a5.842,5.842,0,0,0-1.3-.758L18.614,6.33A.4.4,0,0,0,18.225,6h-3.11a.362.362,0,0,0-.369.33l-.292,2.061a5.437,5.437,0,0,0-1.3.758l-1.944-.778a.375.375,0,0,0-.467.175L9.185,11.229a.389.389,0,0,0,.1.505l1.652,1.283a3.24,3.24,0,0,0-.1.758,4.979,4.979,0,0,0,.058.758L9.263,15.817a.368.368,0,0,0-.1.486l1.555,2.7a.4.4,0,0,0,.486.175l1.925-.778a5.561,5.561,0,0,0,1.322.758l.272,2.061a.4.4,0,0,0,.389.33h3.11a.4.4,0,0,0,.389-.33l.292-2.061a5.437,5.437,0,0,0,1.3-.758l1.925.778a.356.356,0,0,0,.467-.175l1.555-2.7a.364.364,0,0,0-.1-.486l-1.614-1.283a4.979,4.979,0,0,0,.058-.758,4.619,4.619,0,0,0-.058-.758L24.1,11.735a.389.389,0,0,0,.1-.505L22.638,8.547A.408.408,0,0,0,22.152,8.372ZM16.67,16.556a2.78,2.78,0,1,1,2.78-2.78A2.779,2.779,0,0,1,16.67,16.556Z" transform="translate(0.826 -0.168)" fill="#7884dd"/>
            <path id="Path_441" data-name="Path 441" d="M34.988,14.781A13.732,13.732,0,0,0,22.293,3.019C22.021,3,21.768,3,21.5,3A13.6,13.6,0,0,0,8.043,14.664L4.291,21.429a1.94,1.94,0,0,0,1.652,2.955H7.888v3.888a3.9,3.9,0,0,0,3.888,3.888H13.72v5.832H27.328v-9.1A13.639,13.639,0,0,0,34.988,14.781ZM25.17,25.609l-1.73.816V34.1H17.608V28.272H11.776V20.5H9.249l2.586-4.53A9.7,9.7,0,1,1,25.17,25.609Z" transform="translate(-4 -3)" fill="#7884dd"/>
          </g>
        </g>
      </g>
    </g>
  </g>
</svg>
